<?xml version="1.0" encoding="UTF-8" standalone="no"?>
<!-- Created with Inkscape (http://www.inkscape.org/) -->
<svg xmlns:svg="http://www.w3.org/2000/svg" xmlns="http://www.w3.org/2000/svg" xmlns:xlink="http://www.w3.org/1999/xlink" xmlns:inkscape="http://www.inkscape.org/namespaces/inkscape" version="1.0" width="1083.2778" height="922.81604" id="svg2">
  <defs id="defs4">
    <linearGradient id="linearGradient5551">
      <stop id="stop5553" style="stop-color:#000000;stop-opacity:1" offset="0"/>
      <stop id="stop5559" style="stop-color:#000000;stop-opacity:0.73387098" offset="0.5"/>
      <stop id="stop5555" style="stop-color:#7f7f7f;stop-opacity:0" offset="1"/>
    </linearGradient>
    <filter height="3.4079368" y="-1.2039684" width="3.3935728" x="-1.1967864" id="filter4480">
      <feGaussianBlur id="feGaussianBlur4482" stdDeviation="26.935947" inkscape:collect="always"/>
    </filter>
    <filter height="2.9618764" y="-0.98093814" width="2.9501734" x="-0.97508663" id="filter4504">
      <feGaussianBlur id="feGaussianBlur4506" stdDeviation="21.946174" inkscape:collect="always"/>
    </filter>
    <filter height="1.2269824" y="-0.11349121" width="1.2254816" x="-0.11274079" id="filter4532">
      <feGaussianBlur id="feGaussianBlur4534" stdDeviation="2.5382597" inkscape:collect="always"/>
    </filter>
    <filter id="filter4830">
      <feGaussianBlur id="feGaussianBlur4832" stdDeviation="0.6966028" inkscape:collect="always"/>
    </filter>
    <filter id="filter4834">
      <feGaussianBlur id="feGaussianBlur4836" stdDeviation="0.6966028" inkscape:collect="always"/>
    </filter>
    <filter id="filter4838">
      <feGaussianBlur id="feGaussianBlur4840" stdDeviation="0.6966028" inkscape:collect="always"/>
    </filter>
    <filter id="filter5467">
      <feGaussianBlur id="feGaussianBlur5469" stdDeviation="5.0743359" inkscape:collect="always"/>
    </filter>
    <linearGradient x1="241.5175" y1="211.42357" x2="188.28362" y2="211.42357" id="linearGradient3756" xlink:href="#linearGradient5551" gradientUnits="userSpaceOnUse"/>
    <linearGradient x1="241.5175" y1="211.42357" x2="188.28362" y2="211.42357" id="linearGradient3782" xlink:href="#linearGradient5551" gradientUnits="userSpaceOnUse"/>
  </defs>
  <g transform="translate(-113.48003,-398.98523)" id="layer1">
    <rect width="1081.7284" height="921.2666" x="114.25475" y="399.75995" id="rect3365" style="fill:#00000c;fill-opacity:1;fill-rule:evenodd;stroke:#ffffff;stroke-width:1.54943931;stroke-linecap:butt;stroke-linejoin:miter;marker:none;marker-start:none;marker-mid:none;marker-end:none;stroke-miterlimit:4;stroke-dasharray:none;stroke-dashoffset:0;stroke-opacity:1;visibility:visible;display:inline;overflow:visible;enable-background:accumulate"/>
    <path d="M 927.03854,1098.8788 C 927.03854,1098.8788 909.55179,1069.6907 857.15049,1105.0389 C 800.98111,1142.9288 756.55978,1177.9947 692.44701,1196.7865 C 628.33425,1215.5781 541.00826,1229.9482 518.9004,1236.5806 C 496.79257,1243.2129 483.52784,1249.8453 502.31953,1267.5315 C 521.11119,1285.2178 553.16758,1310.6419 628.33425,1311.7472 C 703.50094,1312.8527 791.85446,1304.6025 854.9397,1255.3722 C 947.79265,1171.3624 937.85491,1143.8705 937.99131,1130.3265 C 937.16059,1104.6855 925.72734,1097.7723 927.03854,1098.8788 z" id="path3176" style="fill:none;fill-rule:evenodd;stroke:#ffffff;stroke-width:1.76430964;stroke-linecap:butt;stroke-linejoin:miter;stroke-miterlimit:4;stroke-dasharray:none;stroke-opacity:1"/>
    <path d="M 513.52766,1332.6774 C 513.52766,1332.6774 425.50713,1292.7611 381.49686,1257.9623 C 337.4866,1223.1635 288.35887,1160.7303 284.26488,1142.3074 C 280.1709,1123.8844 285.28837,1111.6025 295.52333,1112.626 C 305.75827,1113.6495 351.81553,1146.4014 404.01376,1161.7538 C 456.21196,1177.1062 465.42343,1184.2707 500.22225,1188.3646 C 535.02106,1192.4586 565.72588,1203.7171 640.441,1182.2237 C 715.1561,1160.7303 799.08267,1110.5791 829.7875,1086.0152 C 860.49233,1061.4513 906.5496,1033.817 952.60686,1045.0754 C 998.66411,1056.3338 1005.8286,1102.3911 985.35868,1145.3778 C 964.88879,1188.3646 928.04299,1247.7273 845.13993,1297.8785 C 762.23687,1348.0297 550.37348,1336.7714 550.37348,1336.7714 L 513.52766,1332.6774 z" id="path3178" style="fill:none;fill-rule:evenodd;stroke:#ffffff;stroke-width:1.76430964;stroke-linecap:butt;stroke-linejoin:miter;stroke-miterlimit:4;stroke-dasharray:none;stroke-opacity:1"/>
    <path d="M 135.85816,1331.6538 L 94.918385,1281.5026" id="path3180" style="fill:none;fill-rule:evenodd;stroke:#ffffff;stroke-width:1.76430964;stroke-linecap:butt;stroke-linejoin:miter;stroke-miterlimit:4;stroke-dasharray:none;stroke-opacity:1"/>
    <path d="M 153.25757,1327.5599 L 91.847902,1264.1032" id="path3182" style="fill:none;fill-rule:evenodd;stroke:#ffffff;stroke-width:1.76430964;stroke-linecap:butt;stroke-linejoin:miter;stroke-miterlimit:4;stroke-dasharray:none;stroke-opacity:1"/>
    <path d="M 170.65698,1324.4894 L 105.15333,1252.8447" id="path3184" style="fill:none;fill-rule:evenodd;stroke:#ffffff;stroke-width:1.76430964;stroke-linecap:butt;stroke-linejoin:miter;stroke-miterlimit:4;stroke-dasharray:none;stroke-opacity:1"/>
    <path d="M 191.12688,1324.4894 C 191.12688,1324.4894 116.41177,1246.7038 101.05935,1218.046" id="path3186" style="fill:none;fill-rule:evenodd;stroke:#ffffff;stroke-width:1.76430964;stroke-linecap:butt;stroke-linejoin:miter;stroke-miterlimit:4;stroke-dasharray:none;stroke-opacity:1"/>
    <path d="M 219.78472,1331.6538 C 219.78472,1331.6538 113.34129,1214.9754 104.12984,1197.5761" id="path3190" style="fill:none;fill-rule:evenodd;stroke:#ffffff;stroke-width:1.76430964;stroke-linecap:butt;stroke-linejoin:miter;stroke-miterlimit:4;stroke-dasharray:none;stroke-opacity:1"/>
    <path d="M 250.48957,1328.5834 C 250.48957,1328.5834 133.81118,1220.093 107.20032,1165.8478" id="path3192" style="fill:none;fill-rule:evenodd;stroke:#ffffff;stroke-width:1.76430964;stroke-linecap:butt;stroke-linejoin:miter;stroke-miterlimit:4;stroke-dasharray:none;stroke-opacity:1"/>
    <path d="M 277.10041,1329.6069 C 277.10041,1329.6069 188.37318,1263.0798 105.47013,1121.8374" id="path3194" style="fill:none;fill-rule:evenodd;stroke:#ffffff;stroke-width:1.76430964;stroke-linecap:butt;stroke-linejoin:miter;stroke-miterlimit:4;stroke-dasharray:none;stroke-opacity:1"/>
    <path d="M 109.24731,1036.8874 C 109.24731,1036.8874 189.07988,1242.6098 335.43961,1322.4425" id="path3196" style="fill:none;fill-rule:evenodd;stroke:#ffffff;stroke-width:1.76430964;stroke-linecap:butt;stroke-linejoin:miter;stroke-miterlimit:4;stroke-dasharray:none;stroke-opacity:1"/>
    <path d="M 108.22381,1095.2266 C 108.22381,1095.2266 174.75098,1229.3044 310.87574,1326.5364" id="path3198" style="fill:none;fill-rule:evenodd;stroke:#ffffff;stroke-width:1.76430964;stroke-linecap:butt;stroke-linejoin:miter;stroke-miterlimit:4;stroke-dasharray:none;stroke-opacity:1"/>
    <path d="M 114.36478,929.4205 C 114.36478,929.4205 141.99913,1188.3646 370.23844,1323.4659" id="path3204" style="fill:none;fill-rule:evenodd;stroke:#ffffff;stroke-width:1.76430964;stroke-linecap:butt;stroke-linejoin:miter;stroke-miterlimit:4;stroke-dasharray:none;stroke-opacity:1"/>
    <path d="M 115.38827,794.31921 C 115.38827,794.31921 130.7407,552.77449 368.19143,398.22681" id="path3206" style="fill:none;fill-rule:evenodd;stroke:#ffffff;stroke-width:1.76430964;stroke-linecap:butt;stroke-linejoin:miter;stroke-miterlimit:4;stroke-dasharray:none;stroke-opacity:1"/>
    <path d="M 105.15333,421.7672 L 137.90516,392.08584" id="path3208" style="fill:none;fill-rule:evenodd;stroke:#ffffff;stroke-width:1.76430964;stroke-linecap:butt;stroke-linejoin:miter;stroke-miterlimit:4;stroke-dasharray:none;stroke-opacity:1"/>
    <path d="M 107.20032,444.28407 L 156.32806,391.06233" id="path3210" style="fill:none;fill-rule:evenodd;stroke:#ffffff;stroke-width:1.76430964;stroke-linecap:butt;stroke-linejoin:miter;stroke-miterlimit:4;stroke-dasharray:none;stroke-opacity:1"/>
    <path d="M 106.17682,467.82444 L 174.75098,390.03887" id="path3212" style="fill:none;fill-rule:evenodd;stroke:#ffffff;stroke-width:1.76430964;stroke-linecap:butt;stroke-linejoin:miter;stroke-miterlimit:4;stroke-dasharray:none;stroke-opacity:1"/>
    <path d="M 106.17682,486.24734 C 106.17682,486.24734 183.96241,394.13283 200.33834,387.99187" id="path3214" style="fill:none;fill-rule:evenodd;stroke:#ffffff;stroke-width:1.76430964;stroke-linecap:butt;stroke-linejoin:miter;stroke-miterlimit:4;stroke-dasharray:none;stroke-opacity:1"/>
    <path d="M 107.20032,523.09316 C 107.20032,523.09316 197.26784,396.17984 227.97268,387.99187" id="path3216" style="fill:none;fill-rule:evenodd;stroke:#ffffff;stroke-width:1.76430964;stroke-linecap:butt;stroke-linejoin:miter;stroke-miterlimit:4;stroke-dasharray:none;stroke-opacity:1"/>
    <path d="M 99.012364,571.19739 C 99.012364,571.19739 208.52628,397.2033 273.00644,375.70993" id="path3218" style="fill:none;fill-rule:evenodd;stroke:#ffffff;stroke-width:1.76430964;stroke-linecap:butt;stroke-linejoin:miter;stroke-miterlimit:4;stroke-dasharray:none;stroke-opacity:1"/>
    <path d="M 115.38827,585.52632 C 115.38827,585.52632 187.03291,452.47202 273.00644,399.2503" id="path3220" style="fill:none;fill-rule:evenodd;stroke:#ffffff;stroke-width:1.76430964;stroke-linecap:butt;stroke-linejoin:miter;stroke-miterlimit:4;stroke-dasharray:none;stroke-opacity:1"/>
    <path d="M 115.38827,621.34862 C 115.38827,621.34862 154.28107,505.69374 308.82876,398.22681" id="path3222" style="fill:none;fill-rule:evenodd;stroke:#ffffff;stroke-width:1.76430964;stroke-linecap:butt;stroke-linejoin:miter;stroke-miterlimit:4;stroke-dasharray:none;stroke-opacity:1"/>
    <path d="M 112.3178,671.49986 C 112.3178,671.49986 205.45581,456.566 338.5101,398.22681" id="path3224" style="fill:none;fill-rule:evenodd;stroke:#ffffff;stroke-width:1.76430964;stroke-linecap:butt;stroke-linejoin:miter;stroke-miterlimit:4;stroke-dasharray:none;stroke-opacity:1"/>
    <path d="M 425.32176,395.45659 C 425.32176,395.45659 151.6942,512.1936 147.44298,860.79329 C 143.0322,1222.4768 491.48338,1376.8539 524.56418,1370.2377" id="path3226" style="fill:none;fill-rule:evenodd;stroke:#ffffff;stroke-width:1.76430964;stroke-linecap:butt;stroke-linejoin:miter;stroke-miterlimit:4;stroke-dasharray:none;stroke-opacity:1"/>
    <path d="M 500.45196,393.61878 C 500.45196,393.61878 390.14059,433.92484 324.37804,514.537 C 258.6155,595.14916 281.95059,593.02777 288.31471,600.45258 C 294.67883,607.87739 296.80021,605.75602 342.40971,584.54229 C 388.0192,563.32857 481.35959,515.59768 587.42822,529.3866 C 693.49684,543.17553 793.20133,602.57395 838.81085,639.69798 C 884.42036,676.82198 931.09054,690.61091 961.85044,669.3972 C 992.61035,648.18347 1012.7634,616.36288 982.00349,565.44994 C 951.24359,514.537 897.1486,444.53171 845.17496,424.37868 C 793.20133,404.22564 716.83193,369.22299 716.83193,369.22299 L 500.45196,393.61878 z" id="path3228" style="fill:none;fill-rule:evenodd;stroke:#ffffff;stroke-width:1.76430964;stroke-linecap:butt;stroke-linejoin:miter;stroke-miterlimit:4;stroke-dasharray:none;stroke-opacity:1"/>
    <path d="M 664.85832,407.40769 C 664.85832,407.40769 587.42822,409.52907 545.00078,427.56073 C 502.57332,445.5924 493.02715,459.38132 494.08783,468.9275 C 495.14851,478.47367 542.8794,489.08054 607.58127,500.74808 C 672.28311,512.41563 769.86624,552.72171 799.56547,576.0568 C 829.26466,599.3919 874.87419,637.5766 905.63409,632.27316 C 936.39399,626.96974 942.75809,607.87739 938.51535,582.42091 C 934.2726,556.96445 928.96918,535.75072 891.84516,498.6267 C 854.72114,461.50269 801.68683,428.62142 768.80556,422.2573 C 735.9243,415.89319 686.07203,405.28632 664.85832,407.40769 z" id="path3230" style="fill:none;fill-rule:evenodd;stroke:#ffffff;stroke-width:1.76430964;stroke-linecap:butt;stroke-linejoin:miter;stroke-miterlimit:4;stroke-dasharray:none;stroke-opacity:1"/>
    <path d="M 1134.2791,398.58941 C 1134.2791,398.58941 1191.8034,463.4185 1196.3689,482.59331" id="path3232" style="fill:none;fill-rule:evenodd;stroke:#ffffff;stroke-width:1.76430964;stroke-linecap:butt;stroke-linejoin:miter;stroke-miterlimit:4;stroke-dasharray:none;stroke-opacity:1"/>
    <path d="M 1116.0173,393.11089 C 1116.0173,393.11089 1188.1511,482.59331 1199.1081,510.89897" id="path3234" style="fill:none;fill-rule:evenodd;stroke:#ffffff;stroke-width:1.76430964;stroke-linecap:butt;stroke-linejoin:miter;stroke-miterlimit:4;stroke-dasharray:none;stroke-opacity:1"/>
    <path d="M 1096.8425,396.76324 C 1096.8425,396.76324 1173.5417,497.20268 1194.5427,536.46537" id="path3238" style="fill:none;fill-rule:evenodd;stroke:#ffffff;stroke-width:1.76430964;stroke-linecap:butt;stroke-linejoin:miter;stroke-miterlimit:4;stroke-dasharray:none;stroke-opacity:1"/>
    <path d="M 1072.1892,395.85015 C 1072.1892,395.85015 1137.9314,452.46147 1193.6297,565.68412" id="path3240" style="fill:none;fill-rule:evenodd;stroke:#ffffff;stroke-width:1.76430964;stroke-linecap:butt;stroke-linejoin:miter;stroke-miterlimit:4;stroke-dasharray:none;stroke-opacity:1"/>
    <path d="M 1053.9275,396.76324 C 1053.9275,396.76324 1128.8005,455.20073 1196.3689,607.68607" id="path3242" style="fill:none;fill-rule:evenodd;stroke:#ffffff;stroke-width:1.76430964;stroke-linecap:butt;stroke-linejoin:miter;stroke-miterlimit:4;stroke-dasharray:none;stroke-opacity:1"/>
    <path d="M 1036.5789,395.85015 C 1036.5789,395.85015 1147.0623,490.81108 1195.4558,646.03568" id="path3244" style="fill:none;fill-rule:evenodd;stroke:#ffffff;stroke-width:1.76430964;stroke-linecap:butt;stroke-linejoin:miter;stroke-miterlimit:4;stroke-dasharray:none;stroke-opacity:1"/>
    <path d="M 1020.1433,396.76324 C 1020.1433,396.76324 1140.2384,513.75294 1168.0633,617.73002 C 1202.7605,747.38822 1196.3689,822.26125 1196.3689,822.26125" id="path3246" style="fill:none;fill-rule:evenodd;stroke:#ffffff;stroke-width:1.76430964;stroke-linecap:butt;stroke-linejoin:miter;stroke-miterlimit:4;stroke-dasharray:none;stroke-opacity:1"/>
    <path d="M 997.31618,394.02399 L 997.31618,394.02399 C 997.31618,394.02399 1111.4519,497.20268 1144.3229,605.8599 C 1177.1941,714.51712 1170.8025,786.6509 1170.8025,786.6509 L 1170.8025,995.74756 C 1170.8025,995.74756 1154.367,1198.4526 1001.8816,1321.7192" id="path3250" style="fill:none;fill-rule:evenodd;stroke:#ffffff;stroke-width:1.76430964;stroke-linecap:butt;stroke-linejoin:miter;stroke-miterlimit:4;stroke-dasharray:none;stroke-opacity:1"/>
    <path d="M 1015.5779,1327.1977 C 1015.5779,1327.1977 1175.3679,1190.2348 1193.6297,996.66063 C 1211.8914,803.08645 1210.0652,900.78663 1212.8044,905.35205" id="path3252" style="fill:none;fill-rule:evenodd;stroke:#ffffff;stroke-width:1.76430964;stroke-linecap:butt;stroke-linejoin:miter;stroke-miterlimit:4;stroke-dasharray:none;stroke-opacity:1"/>
    <path d="M 1037.492,1323.5454 C 1037.492,1323.5454 1149.8015,1221.2798 1195.4558,1073.3599" id="path3254" style="fill:none;fill-rule:evenodd;stroke:#ffffff;stroke-width:1.76430964;stroke-linecap:butt;stroke-linejoin:miter;stroke-miterlimit:4;stroke-dasharray:none;stroke-opacity:1"/>
    <path d="M 1054.8406,1325.3715 C 1054.8406,1325.3715 1153.4539,1221.2798 1195.4558,1116.2749" id="path3256" style="fill:none;fill-rule:evenodd;stroke:#ffffff;stroke-width:1.76430964;stroke-linecap:butt;stroke-linejoin:miter;stroke-miterlimit:4;stroke-dasharray:none;stroke-opacity:1"/>
    <path d="M 1078.5808,1320.8061 C 1078.5808,1320.8061 1168.0633,1218.5404 1194.5427,1153.7114" id="path3258" style="fill:none;fill-rule:evenodd;stroke:#ffffff;stroke-width:1.76430964;stroke-linecap:butt;stroke-linejoin:miter;stroke-miterlimit:4;stroke-dasharray:none;stroke-opacity:1"/>
    <path d="M 1098.6687,1324.4585 C 1098.6687,1324.4585 1190.8903,1202.1049 1195.4558,1187.4956" id="path3260" style="fill:none;fill-rule:evenodd;stroke:#ffffff;stroke-width:1.76430964;stroke-linecap:butt;stroke-linejoin:miter;stroke-miterlimit:4;stroke-dasharray:none;stroke-opacity:1"/>
    <path d="M 1119.6697,1322.6323 C 1119.6697,1322.6323 1189.9773,1234.0629 1193.6297,1221.2798" id="path3262" style="fill:none;fill-rule:evenodd;stroke:#ffffff;stroke-width:1.76430964;stroke-linecap:butt;stroke-linejoin:miter;stroke-miterlimit:4;stroke-dasharray:none;stroke-opacity:1"/>
    <path d="M 1135.1922,1322.6323 C 1135.1922,1322.6323 1191.8034,1255.977 1195.4558,1245.02" id="path3264" style="fill:none;fill-rule:evenodd;stroke:#ffffff;stroke-width:1.76430964;stroke-linecap:butt;stroke-linejoin:miter;stroke-miterlimit:4;stroke-dasharray:none;stroke-opacity:1"/>
    <path d="M 974.11857,397.04172 C 974.11855,397.04172 1081.0117,471.9057 1129.1159,613.92776 C 1177.2202,755.94982 1123.0511,805.52077 1123.0511,805.52077 C 1123.0511,805.52077 1074.9338,778.06602 1057.3719,771.95753 C 1039.81,765.84905 1016.2757,752.15146 975.63477,760.51708 C 948.854,766.02971 932.16571,771.21379 919.94875,778.84937 C 907.73181,786.48499 880.95594,793.34264 859.57627,771.19944 C 854.23139,765.66362 846.98186,757.0878 838.48726,747.07801 C 829.99266,737.0682 820.27896,725.60962 810.16182,714.20395 C 800.04463,702.79829 789.499,691.46687 777.42561,679.46911 C 726.28695,630.23009 658.21779,601.17787 583.07586,601.17787 C 432.79215,601.17787 310.84838,717.42589 310.84838,860.65544 C 310.84838,1003.8849 432.79215,1120.133 583.07586,1120.133 C 601.86135,1120.133 620.21716,1118.3535 637.93487,1114.8952 C 655.6526,1111.4369 672.71915,1106.3011 689.00336,1099.7332 C 705.28743,1093.1653 720.76287,1085.1474 735.24757,1075.8185 C 749.73236,1066.4896 763.24529,1055.8572 775.56481,1044.1161 C 806.64844,1016.8325 829.85506,980.42639 857.73965,952.5021 C 866.45922,944.53796 872.50543,932.84136 901.61647,937.63724 C 938.94154,943.78635 937.89466,958.91319 976.39287,959.76003 C 1044.6508,961.25559 1066.4562,948.04594 1077.9096,938.11967 C 1085.068,931.91574 1103.5773,921.07556 1118.5025,920.89008 C 1127.4576,920.7788 1135.1324,924.48222 1138.2821,935.36294 C 1146.6812,964.37822 1155.0695,1011.7232 1139.7983,1069.7537 C 1124.5271,1127.7842 1098.5694,1181.961 1071.8448,1219.3754 C 1045.1202,1256.7898 999.33647,1309.5145 951.99578,1339.2934" id="path2422" style="fill:none;fill-rule:evenodd;stroke:#ffffff;stroke-width:1.76430964;stroke-linecap:butt;stroke-linejoin:miter;stroke-miterlimit:4;stroke-dasharray:none;stroke-opacity:1"/>
    <path d="M 427.73481,210.36649 A 30.500921,29.959484 0 1 1 366.73297,210.36649 A 30.500921,29.959484 0 1 1 427.73481,210.36649 z" transform="matrix(2.2053871,0,0,2.2053871,113.96417,396.46787)" id="path2428" style="fill:none;fill-opacity:1;fill-rule:evenodd;stroke:#ffffff;stroke-width:0.80000001;stroke-linecap:butt;stroke-linejoin:miter;marker:none;marker-start:none;marker-mid:none;marker-end:none;stroke-miterlimit:4;stroke-dasharray:none;stroke-dashoffset:0;stroke-opacity:1;visibility:visible;display:inline;overflow:visible;enable-background:accumulate"/>
    <path d="M 423.5838,210.186 A 26.16943,26.530386 0 1 1 371.24494,210.186 A 26.16943,26.530386 0 1 1 423.5838,210.186 z" transform="matrix(2.2053871,0,0,2.2053871,113.56613,396.8659)" id="path2430" style="fill:none;fill-opacity:1;fill-rule:evenodd;stroke:#ffffff;stroke-width:0.80000001;stroke-linecap:butt;stroke-linejoin:miter;marker:none;marker-start:none;marker-mid:none;marker-end:none;stroke-miterlimit:4;stroke-dasharray:none;stroke-dashoffset:0;stroke-opacity:1;visibility:visible;display:inline;overflow:visible;enable-background:accumulate"/>
    <path d="M 430.98343,210.90791 A 33.930019,31.222836 0 1 1 363.12339,210.90791 A 33.930019,31.222836 0 1 1 430.98343,210.90791 z" transform="matrix(2.2051651,0,0,2.2816332,114.45038,379.19294)" id="path2432" style="fill:none;fill-opacity:1;fill-rule:evenodd;stroke:#ffffff;stroke-width:0.7865591;stroke-linecap:butt;stroke-linejoin:miter;marker:none;marker-start:none;marker-mid:none;marker-end:none;stroke-miterlimit:4;stroke-dasharray:none;stroke-dashoffset:0;stroke-opacity:1;visibility:visible;display:inline;overflow:visible;enable-background:accumulate"/>
    <path d="M 1076.0487,862.11466 C 1076.0487,904.48643 1038.496,937.33549 990.96109,937.33549 C 943.42614,937.33549 903.30742,903.97322 903.30742,861.60145 C 903.30742,819.2297 941.88651,784.84103 989.42146,784.84103 C 1036.9564,784.84103 1076.0487,819.74291 1076.0487,862.11466 z" id="path2434" style="fill:none;fill-opacity:1;fill-rule:evenodd;stroke:#ffffff;stroke-width:1.76430964;stroke-linecap:butt;stroke-linejoin:miter;marker:none;marker-start:none;marker-mid:none;marker-end:none;stroke-miterlimit:4;stroke-dashoffset:0;stroke-opacity:1;visibility:visible;display:inline;overflow:visible;enable-background:accumulate"/>
    <path d="M 948.48094,395.8701 C 948.48097,395.8701 1036.5436,480.89789 1053.0301,507.17324 C 1069.5166,533.44858 1105.6056,589.58887 1113.3336,617.92502 C 1121.0617,646.26117 1121.0751,724.57541 1117.4687,734.87947 C 1113.8623,745.18354 1107.7041,759.13199 1093.2784,757.07117 C 1078.8527,755.01037 986.53814,746.8743 964.95243,752.45364 C 941.49013,758.51804 917.58777,767.89135 901.61647,767.89135 C 885.64518,767.89135 860.88145,747.76964 849.03177,737.98079 C 843.10692,733.08637 817.83225,708.40553 797.68759,687.77378 C 792.58522,682.53354 786.53394,676.12214 780.18234,670.0273 C 773.8308,663.93249 767.12929,658.1512 760.19602,652.65988 C 753.2627,647.16852 746.09244,641.99585 738.62457,637.15324 C 731.15667,632.31066 723.42335,627.79389 715.468,623.64524 C 707.51267,619.49661 699.32872,615.68312 690.93308,612.27372 C 682.53745,608.86432 673.94639,605.80142 665.15761,603.1765 C 656.36886,600.55161 647.3453,598.35555 638.21053,596.56034 C 629.0758,594.76513 619.80107,593.41436 610.36753,592.49415 C 600.93394,591.57393 591.38274,591.11578 581.6975,591.11579 C 426.73372,591.11579 300.92415,711.7485 300.92415,860.4487 C 300.92415,1009.1489 426.73372,1129.8505 581.6975,1129.8505 C 601.06796,1129.8505 619.94109,1127.9964 638.21053,1124.406 C 656.48001,1120.8156 674.14184,1115.5114 690.93308,1108.6926 C 707.72435,1101.8738 723.68877,1093.4982 738.62457,1083.8131 C 753.56036,1074.1278 767.47928,1063.1286 780.18234,1050.939 C 792.88545,1038.7493 805.72133,1026.1071 817.10462,1013.9466 C 828.48787,1001.7861 871.22791,965.28976 880.45853,960.03571 C 886.35406,956.67999 895.57883,952.97987 902.44349,952.73036 C 907.99487,952.79703 915.50217,954.10471 926.28924,957.48573 C 960.8078,968.305 987.12177,970.33058 1032.9748,967.75456 C 1078.8279,965.17858 1106.1376,950.26555 1118.5025,986.84494 C 1130.8674,1023.4244 1116.9744,1103.2652 1092.2446,1150.6639 C 1067.5149,1198.0626 1015.4506,1266.0841 946.41339,1323.7867" id="path3209" style="fill:none;fill-rule:evenodd;stroke:#ffffff;stroke-width:1.76430964;stroke-linecap:butt;stroke-linejoin:miter;stroke-miterlimit:4;stroke-dasharray:none;stroke-opacity:1"/>
    <path d="M 843.31154,1323.8557 C 843.31152,1323.8557 942.22536,1273.8576 999.68728,1185.5366 C 1057.1492,1097.2155 1024.2057,1054.5973 1019.9493,1047.1485 C 1015.6928,1039.6997 1012.4372,1035.5013 1012.4372,1035.5013 C 1012.4372,1035.5013 967.80574,1009.9022 957.16465,1010.9664 C 946.52356,1012.0304 900.76494,1008.8517 867.77756,1032.2621 C 842.20782,1050.4084 828.74527,1065.3489 813.6606,1078.6564 C 785.25127,1102.0872 740.78276,1131.5616 705.61268,1145.0815 C 664.79831,1160.771 619.9595,1169.4097 572.87594,1169.4097 C 384.54179,1169.4097 231.66121,1030.6262 231.66121,859.55275 C 231.66121,688.47922 384.54182,549.62694 572.87594,549.62694 C 619.95949,549.62695 664.79831,558.26563 705.61268,573.95512 C 745.11871,589.14171 780.80674,610.95858 811.69668,638.55997 C 839.74866,662.14014 877.21724,688.8856 913.85233,701.0973 C 952.16026,713.86662 1012.4372,687.53255 1012.4372,687.53255 C 1012.4372,687.53255 1033.7633,656.64088 1032.6992,625.78172 C 1031.6351,594.92254 1005.0219,542.76036 967.77808,495.93955 C 930.53425,449.11874 848.61823,397.04172 848.61825,397.04172" id="path3221" style="fill:none;fill-rule:evenodd;stroke:#ffffff;stroke-width:1.76430964;stroke-linecap:butt;stroke-linejoin:miter;stroke-miterlimit:4;stroke-dasharray:none;stroke-opacity:1"/>
    <path d="M 883.27272,393.79953 C 883.2727,393.79953 986.43491,465.87386 1040.9846,564.30461 C 1095.5344,662.73536 1046.956,709.3719 1040.2307,708.62053 C 1033.5054,707.86916 943.79397,740.16006 913.15643,729.64076 C 882.5189,719.12144 872.08041,721.35019 839.64337,688.33664 L 777.51459,629.36393 C 754.15119,610.70587 727.8994,595.23201 699.44684,583.73969 C 662.37899,568.76756 621.64566,560.44516 578.88396,560.44516 C 407.83709,560.44516 269.01194,692.99297 269.01194,856.24457 C 269.01194,1019.496 407.83709,1151.975 578.88396,1151.975 C 648.0466,1151.975 709.19585,1135.6545 760.02899,1098.3726 C 774.9985,1087.5693 818.12008,1055.9416 827.27506,1046.7361 C 840.05514,1033.8855 867.59544,1004.8807 887.79642,998.63078 C 897.51075,995.62525 925.89338,987.36844 947.56382,991.87673 C 985.19074,999.7046 1023.0505,1000.8681 1040.9846,1012.1388 C 1142.2583,1094.3504 936.0057,1308.2089 831.7302,1354.1138" id="path3229" style="fill:none;fill-opacity:1;fill-rule:evenodd;stroke:#ffffff;stroke-width:1.76430964;stroke-linecap:butt;stroke-linejoin:miter;marker:none;marker-start:none;marker-mid:none;marker-end:none;stroke-miterlimit:4;stroke-dasharray:none;stroke-dashoffset:0;stroke-opacity:1;visibility:visible;display:inline;overflow:visible;enable-background:accumulate"/>
    <path d="M 913.73172,1327.7885 C 913.7317,1327.7885 1019.7732,1229.58 1049.0854,1182.6451 C 1078.3975,1135.7101 1094.7767,1083.5706 1095.6389,1064.4489 C 1096.501,1045.3272 1092.1872,1000.9978 1068.9099,990.56777 C 1045.6326,980.13774 974.96037,984.46469 954.26946,980.98803 C 936.16488,977.94592 922.01807,970.95912 908.94647,970.99476 C 907.07911,970.99986 905.24129,971.15126 903.40928,971.47718 C 888.75325,974.08468 870.64975,986.21407 856.85582,999.25156 C 843.06183,1012.289 785.44576,1064.5599 778.29824,1070.5983 C 749.10862,1095.2583 720.17255,1111.9063 696.6474,1120.0399 C 660.90043,1134.211 622.21077,1142.1206 581.63667,1142.1206 C 419.3404,1142.1207 287.61843,1015.7636 287.61843,860.03516 C 287.61843,704.30664 419.3404,577.88073 581.63667,577.88073 C 662.78489,577.88073 736.30402,609.52045 790.28209,660.81899 C 800.44681,670.66694 865.43839,730.67776 884.40508,741.9769 C 903.37178,753.27605 918.06458,749.78401 934.44494,743.69988 C 950.82523,737.61571 1027.5589,737.62355 1049.9741,735.01606 C 1072.3893,732.40859 1087.0176,718.51845 1095.6389,686.35925 C 1104.2601,654.20011 1075.8569,576.82133 1043.9584,529.01716 C 1012.0598,481.21301 916.32941,396.07238 916.32941,396.07238" id="path3237" style="fill:none;fill-rule:evenodd;stroke:#ffffff;stroke-width:1.76430964;stroke-linecap:butt;stroke-linejoin:miter;stroke-miterlimit:4;stroke-dasharray:none;stroke-opacity:1"/>
    <path d="M 715.37481,1076.5144 C 702.39975,1084.3567 688.50638,1090.8875 673.77283,1096.1273 C 659.03928,1101.3669 643.46574,1105.3153 627.13011,1107.9927 C 610.79461,1110.6702 593.69719,1112.0765 575.91604,1112.2321 C 434.92228,1113.4659 320.48245,995.93826 320.48245,857.99884 C 320.48245,720.0593 434.91671,608.10845 575.91604,608.10845 C 593.54096,608.10845 610.75082,609.8577 627.37398,613.18825 C 643.99711,616.51878 660.0335,621.4307 675.31166,627.75607 C 690.58973,634.0814 705.10956,641.8202 718.69937,650.80455 C 718.69937,650.80455 774.66563,686.05394 804.23145,724.4895 C 833.79729,762.92508 865.33418,811.21594 875.18943,812.20146 C 885.0447,813.18698 887.01577,813.18698 907.71185,799.38959 C 928.40791,785.59221 965.85797,766.86719 1008.2357,768.83825 C 1050.6133,770.8093 1088.0634,805.30277 1098.9042,834.86858 C 1109.745,864.43442 1102.8463,902.87 1070.3239,930.46477 C 1037.8015,958.05952 970.78562,952.14637 952.06058,946.2332 C 933.33556,940.32002 894.89998,909.7687 885.0447,906.81211 C 875.18943,903.85552 861.39205,925.53713 848.5802,942.29109 C 835.76834,959.04506 800.28935,1019.1622 715.37481,1076.5144 z" id="path3245" style="fill:none;fill-opacity:1;fill-rule:evenodd;stroke:#ffffff;stroke-width:1.76430964;stroke-linecap:butt;stroke-linejoin:miter;marker:none;marker-start:none;marker-mid:none;marker-end:none;stroke-miterlimit:4;stroke-dasharray:none;stroke-dashoffset:0;stroke-opacity:1;visibility:visible;display:inline;overflow:visible;enable-background:accumulate"/>
    <path d="M 423.5838,210.186 A 26.16943,26.530386 0 1 1 371.24494,210.186 A 26.16943,26.530386 0 1 1 423.5838,210.186 z" transform="matrix(2.3721012,0,0,2.3395216,46.909493,368.67272)" id="path5547" style="fill:none;fill-opacity:1;fill-rule:evenodd;stroke:#e40000;stroke-width:0.80000001;stroke-linecap:butt;stroke-linejoin:miter;marker:none;marker-start:none;marker-mid:none;marker-end:none;stroke-miterlimit:4;stroke-dasharray:none;stroke-dashoffset:0;stroke-opacity:1;visibility:visible;display:inline;overflow:visible;enable-background:accumulate"/>
    <path d="M 735.48482,1048.4712 C 729.3481,1053.4378 722.96447,1058.1214 716.35454,1062.5013 C 709.74471,1066.8813 702.90869,1070.9576 695.86747,1074.7098 C 688.82617,1078.4621 681.57957,1081.8903 674.14862,1084.974 C 666.71757,1088.0577 659.10223,1090.7967 651.32326,1093.1709 C 643.54428,1095.545 635.60183,1097.5542 627.51666,1099.1778 C 619.43149,1100.8016 611.20358,1102.0398 602.85393,1102.8721 C 594.50429,1103.7043 586.03273,1104.1307 577.46035,1104.1307 C 440.30158,1104.1307 328.9843,994.97679 328.9843,860.48355 C 328.9843,725.99023 440.30158,616.83626 577.46035,616.83626 C 586.03273,616.83626 594.50429,617.26267 602.85393,618.09495 C 611.20358,618.92721 619.43149,620.16544 627.51666,621.78915 C 635.60183,623.41286 643.54428,625.42197 651.32326,627.79612 C 659.10223,630.17027 666.71757,632.90935 674.14862,635.99302 C 681.57957,639.07668 688.82617,642.50491 695.86747,646.25717 C 702.90869,650.00944 709.74471,654.08572 716.35454,658.46566 C 722.96447,662.8456 729.3481,667.5292 735.48482,672.4959 C 735.48482,672.4959 767.86398,688.12203 812.11563,746.17111 C 830.81957,770.70687 865.22346,839.4115 873.10764,844.33913 C 880.99192,849.26676 888.38264,837.68218 896.88296,825.65497 C 908.86094,808.70694 946.14746,781.65013 977.6843,777.70804 C 1009.2211,773.76593 1056.4448,788.79414 1074.266,818.1146 C 1094.4315,851.29219 1087.0779,889.07265 1062.4397,916.66738 C 1037.8015,944.26219 997.39486,945.24772 968.8146,941.30552 C 940.23423,937.36341 900.19838,901.61428 892.92892,892.02922 C 887.94865,885.46259 883.84328,874.56374 876.17493,874.28967 C 866.86833,873.95707 851.53675,919.62395 840.696,930.46474 C 829.85515,941.30552 800.28936,1000.4373 735.48482,1048.4712 z" id="path3248" style="fill:none;fill-opacity:1;fill-rule:evenodd;stroke:#ffffff;stroke-width:1.76430964;stroke-linecap:butt;stroke-linejoin:miter;marker:none;marker-start:none;marker-mid:none;marker-end:none;stroke-miterlimit:4;stroke-dasharray:none;stroke-dashoffset:0;stroke-opacity:1;visibility:visible;display:inline;overflow:visible;enable-background:accumulate"/>
    <path d="M 987.66375,832.56221 L 1151.3596,859.20139 L 990.36627,889.7013 L 987.66375,832.56221 z" id="path5585" style="fill:#000000;fill-opacity:0.48019804;fill-rule:evenodd;stroke:none;stroke-width:1px;stroke-linecap:butt;stroke-linejoin:miter;stroke-opacity:0.45882353"/>
    <path d="M 843.34327,863.93276 C 839.14868,900.68782 826.96221,924.09231 816.50129,943.12212 C 769.10061,1029.3498 681.68538,1097.0144 578.11694,1097.0144 C 444.93949,1097.0144 336.85343,992.05705 336.85343,862.73462 C 336.85343,733.41212 444.93949,628.45476 578.11694,628.45476 C 644.70572,628.45476 696.1566,647.60837 756.77762,696.64945 C 824.66404,763.21018 847.67292,825.99472 843.34327,863.93276 z" id="path3251" style="fill:none;fill-opacity:1;fill-rule:evenodd;stroke:#ffffff;stroke-width:1.76430964;stroke-linecap:butt;stroke-linejoin:miter;marker:none;marker-start:none;marker-mid:none;marker-end:none;stroke-miterlimit:4;stroke-dasharray:none;stroke-dashoffset:0;stroke-opacity:1;visibility:visible;display:inline;overflow:visible;enable-background:accumulate"/>
    <path d="M 670.67503,1070.8665 C 642.93559,1082.2941 612.44246,1088.6145 580.44206,1088.6145 C 452.44057,1088.6145 348.55529,987.48762 348.55529,862.88492 C 348.55529,738.28214 452.44057,637.1553 580.44206,637.1553 C 612.44246,637.1553 642.93559,643.4757 670.67503,654.90327 C 670.67503,654.90327 726.31447,669.94812 770.3247,719.19771 C 814.33503,768.44723 833.74005,823.74249 832.14871,863.80284 C 829.4033,932.91527 776.28668,985.84286 767.18115,997.92939 C 739.90075,1034.1408 685.44779,1066.0405 670.67503,1070.8665 z" id="path3255" style="fill:none;fill-opacity:1;fill-rule:evenodd;stroke:#ffffff;stroke-width:1.76430964;stroke-linecap:butt;stroke-linejoin:miter;marker:none;marker-start:none;marker-mid:none;marker-end:none;stroke-miterlimit:4;stroke-dasharray:none;stroke-dashoffset:0;stroke-opacity:1;visibility:visible;display:inline;overflow:visible;enable-background:accumulate"/>
    <path d="M 668.89287,1063.2824 C 655.45812,1068.7591 641.35662,1073.0119 626.73917,1075.8956 C 612.12172,1078.7793 596.98833,1080.2938 581.48996,1080.2938 C 457.5031,1080.2938 356.87606,983.36408 356.87606,863.93284 C 356.87606,744.50153 457.5031,647.57181 581.48996,647.57181 C 596.98833,647.57181 612.12172,649.08635 626.73917,651.97002 C 641.35662,654.85367 666.98462,661.20228 668.89287,664.58318 C 668.89287,664.58318 751.91961,688.64997 797.56916,768.44729 C 838.80961,840.53735 817.22614,913.43121 798.61708,941.3448 C 775.56409,975.92427 742.03242,1030.4132 668.89287,1063.2824 z" id="path3257" style="fill:none;fill-opacity:1;fill-rule:evenodd;stroke:#ffffff;stroke-width:1.76430964;stroke-linecap:butt;stroke-linejoin:miter;marker:none;marker-start:none;marker-mid:none;marker-end:none;stroke-miterlimit:4;stroke-dasharray:none;stroke-dashoffset:0;stroke-opacity:1;visibility:visible;display:inline;overflow:visible;enable-background:accumulate"/>
    <path d="M 664.92752,1057.6709 C 639.11607,1068.2295 610.74234,1074.0692 580.9661,1074.0692 C 461.8612,1074.0692 365.19636,980.63227 365.19636,865.5046 C 365.19636,750.37686 461.8612,656.93988 580.9661,656.93988 C 610.74234,656.93988 639.11607,662.77967 664.92752,673.33827 C 664.92752,673.33827 759.84607,697.19253 793.37772,784.16524 C 826.90937,871.13787 800.43482,938.2129 755.65469,989.54645 C 712.23881,1039.3161 663.44266,1057.6576 664.92752,1057.6709 z" id="path3261" style="fill:none;fill-opacity:1;fill-rule:evenodd;stroke:#ffffff;stroke-width:1.76430988;stroke-linecap:butt;stroke-linejoin:miter;marker:none;marker-start:none;marker-mid:none;marker-end:none;stroke-miterlimit:4;stroke-dasharray:none;stroke-dashoffset:0;stroke-opacity:1;visibility:visible;display:inline;overflow:visible;enable-background:accumulate"/>
    <path d="M 241.5175,211.42357 A 26.616943,26.438305 0 1 1 188.28362,211.42357 A 26.616943,26.438305 0 1 1 241.5175,211.42357 z" transform="matrix(7.8328958,0,0,7.6925648,-1102.3276,-760.88498)" id="path3265" style="fill:none;fill-opacity:1;fill-rule:evenodd;stroke:#ffffff;stroke-width:0.22728883;stroke-linecap:butt;stroke-linejoin:miter;marker:none;marker-start:none;marker-mid:none;marker-end:none;stroke-miterlimit:4;stroke-dasharray:none;stroke-dashoffset:0;stroke-opacity:1;visibility:visible;display:inline;overflow:visible;enable-background:accumulate"/>
    <path d="M 1034.7649,829.08754 L 1124.3343,817.50529 L 1034.3788,808.62556 L 1034.7649,829.08754 z" id="path5587" style="fill:#000000;fill-opacity:0.48019804;fill-rule:evenodd;stroke:none;stroke-width:1px;stroke-linecap:butt;stroke-linejoin:miter;stroke-opacity:0.45882353"/>
    <path d="M 423.5838,210.186 A 26.16943,26.530386 0 1 1 371.24494,210.186 A 26.16943,26.530386 0 1 1 423.5838,210.186 z" transform="matrix(15.380082,0,0,15.076598,-5524.7855,-2308.8186)" id="path3786" style="fill:none;fill-opacity:1;fill-rule:evenodd;stroke:#0034e4;stroke-width:0.13292201;stroke-linecap:butt;stroke-linejoin:miter;marker:none;marker-start:none;marker-mid:none;marker-end:none;stroke-miterlimit:4;stroke-dasharray:none;stroke-dashoffset:0;stroke-opacity:1;visibility:visible;display:inline;overflow:visible;enable-background:accumulate"/>
    <path d="M 423.5838,210.186 A 26.16943,26.530386 0 1 1 371.24494,210.186 A 26.16943,26.530386 0 1 1 423.5838,210.186 z" transform="matrix(20.343063,0,0,19.793017,-7497.1459,-3295.4759)" id="path3788" style="fill:none;fill-opacity:1;fill-rule:evenodd;stroke:#e48700;stroke-width:0.13292201;stroke-linecap:butt;stroke-linejoin:miter;marker:none;marker-start:none;marker-mid:none;marker-end:none;stroke-miterlimit:4;stroke-dasharray:none;stroke-dashoffset:0;stroke-opacity:1;visibility:visible;display:inline;overflow:visible;enable-background:accumulate"/>
    <g transform="matrix(2.2053871,0,0,2.2053871,-64.74677,-408.89073)" id="g3331">
      <path d="M -34.620857,103.04496 L -77.999999,103.04496 L -121.37914,103.04496 L -99.689572,65.477521 L -78,27.91008 L -56.310429,65.477519 L -34.620857,103.04496 z" transform="matrix(0.2487066,-2.579394e-2,2.579394e-2,0.2487066,128.22871,579.81645)" id="path3267" style="opacity:1;fill:#ff0000;fill-opacity:1;fill-rule:evenodd;stroke:none;stroke-width:3.99935055;stroke-linecap:butt;stroke-linejoin:miter;marker:none;marker-start:none;marker-mid:none;marker-end:none;stroke-miterlimit:4;stroke-dasharray:none;stroke-dashoffset:0;stroke-opacity:1;visibility:visible;display:inline;overflow:visible;enable-background:accumulate"/>
      <path d="M -34.620857,103.04496 L -77.999999,103.04496 L -121.37914,103.04496 L -99.689572,65.477521 L -78,27.91008 L -56.310429,65.477519 L -34.620857,103.04496 z" transform="matrix(0.1104628,0.2243174,-0.2243174,0.1104628,136.71981,559.64981)" id="path3269" style="opacity:1;fill:#ff0000;fill-opacity:1;fill-rule:evenodd;stroke:none;stroke-width:3.99935055;stroke-linecap:butt;stroke-linejoin:miter;marker:none;marker-start:none;marker-mid:none;marker-end:none;stroke-miterlimit:4;stroke-dasharray:none;stroke-dashoffset:0;stroke-opacity:1;visibility:visible;display:inline;overflow:visible;enable-background:accumulate"/>
      <path d="M -34.620857,103.04496 L -77.999999,103.04496 L -121.37914,103.04496 L -99.689572,65.477521 L -78,27.91008 L -56.310429,65.477519 L -34.620857,103.04496 z" transform="matrix(0.1068319,0.2260691,-0.2260691,0.1068319,454.96387,557.98158)" id="path3271" style="opacity:1;fill:#ff0000;fill-opacity:1;fill-rule:evenodd;stroke:none;stroke-width:3.99935055;stroke-linecap:butt;stroke-linejoin:miter;marker:none;marker-start:none;marker-mid:none;marker-end:none;stroke-miterlimit:4;stroke-dasharray:none;stroke-dashoffset:0;stroke-opacity:1;visibility:visible;display:inline;overflow:visible;enable-background:accumulate"/>
      <path d="M -34.620857,103.04496 L -77.999999,103.04496 L -121.37914,103.04496 L -99.689572,65.477521 L -78,27.91008 L -56.310429,65.477519 L -34.620857,103.04496 z" transform="matrix(0.2487066,-2.579394e-2,2.579394e-2,0.2487066,446.03442,581.57378)" id="path3273" style="opacity:1;fill:#ff0000;fill-opacity:1;fill-rule:evenodd;stroke:none;stroke-width:3.99935055;stroke-linecap:butt;stroke-linejoin:miter;marker:none;marker-start:none;marker-mid:none;marker-end:none;stroke-miterlimit:4;stroke-dasharray:none;stroke-dashoffset:0;stroke-opacity:1;visibility:visible;display:inline;overflow:visible;enable-background:accumulate"/>
      <path d="M -34.620857,103.04496 L -77.999999,103.04496 L -121.37914,103.04496 L -99.689572,65.477521 L -78,27.91008 L -56.310429,65.477519 L -34.620857,103.04496 z" transform="matrix(0.2485536,2.7229265e-2,-2.7229265e-2,0.2485536,556.14835,585.33385)" id="path3275" style="opacity:1;fill:#ff0000;fill-opacity:1;fill-rule:evenodd;stroke:none;stroke-width:3.99935055;stroke-linecap:butt;stroke-linejoin:miter;marker:none;marker-start:none;marker-mid:none;marker-end:none;stroke-miterlimit:4;stroke-dasharray:none;stroke-dashoffset:0;stroke-opacity:1;visibility:visible;display:inline;overflow:visible;enable-background:accumulate"/>
      <path d="M -34.620857,103.04496 L -77.999999,103.04496 L -121.37914,103.04496 L -99.689572,65.477521 L -78,27.91008 L -56.310429,65.477519 L -34.620857,103.04496 z" transform="matrix(0.1340955,0.2110419,-0.2110419,0.1340955,562.38929,554.86247)" id="path3277" style="opacity:1;fill:#ff0000;fill-opacity:1;fill-rule:evenodd;stroke:none;stroke-width:3.99935055;stroke-linecap:butt;stroke-linejoin:miter;marker:none;marker-start:none;marker-mid:none;marker-end:none;stroke-miterlimit:4;stroke-dasharray:none;stroke-dashoffset:0;stroke-opacity:1;visibility:visible;display:inline;overflow:visible;enable-background:accumulate"/>
      <path d="M -34.620857,103.04496 L -77.999999,103.04496 L -121.37914,103.04496 L -99.689572,65.477521 L -78,27.91008 L -56.310429,65.477519 L -34.620857,103.04496 z" transform="matrix(0.2134921,0.1301592,-0.1301592,0.2134921,124.89459,569.37077)" id="path3279" style="opacity:1;fill:#3232ff;fill-opacity:1;fill-rule:evenodd;stroke:none;stroke-width:3.99935055;stroke-linecap:butt;stroke-linejoin:miter;marker:none;marker-start:none;marker-mid:none;marker-end:none;stroke-miterlimit:4;stroke-dasharray:none;stroke-dashoffset:0;stroke-opacity:1;visibility:visible;display:inline;overflow:visible;enable-background:accumulate"/>
      <path d="M -34.620857,103.04496 L -77.999999,103.04496 L -121.37914,103.04496 L -99.689572,65.477521 L -78,27.91008 L -56.310429,65.477519 L -34.620857,103.04496 z" transform="matrix(-0.2184606,-0.1216358,0.1216358,-0.2184606,95.26712,583.89316)" id="path3281" style="opacity:1;fill:#3232ff;fill-opacity:1;fill-rule:evenodd;stroke:none;stroke-width:3.99935055;stroke-linecap:butt;stroke-linejoin:miter;marker:none;marker-start:none;marker-mid:none;marker-end:none;stroke-miterlimit:4;stroke-dasharray:none;stroke-dashoffset:0;stroke-opacity:1;visibility:visible;display:inline;overflow:visible;enable-background:accumulate"/>
      <path d="M -34.620857,103.04496 L -77.999999,103.04496 L -121.37914,103.04496 L -99.689572,65.477521 L -78,27.91008 L -56.310429,65.477519 L -34.620857,103.04496 z" transform="matrix(0.2134921,0.1301592,-0.1301592,0.2134921,441.68271,568.89845)" id="path3283" style="opacity:1;fill:#3232ff;fill-opacity:1;fill-rule:evenodd;stroke:none;stroke-width:3.99935055;stroke-linecap:butt;stroke-linejoin:miter;marker:none;marker-start:none;marker-mid:none;marker-end:none;stroke-miterlimit:4;stroke-dasharray:none;stroke-dashoffset:0;stroke-opacity:1;visibility:visible;display:inline;overflow:visible;enable-background:accumulate"/>
      <path d="M -34.620857,103.04496 L -77.999999,103.04496 L -121.37914,103.04496 L -99.689572,65.477521 L -78,27.91008 L -56.310429,65.477519 L -34.620857,103.04496 z" transform="matrix(-1.5921844e-3,0.2500355,-0.2500355,-1.5921844e-3,457.62589,594.68644)" id="path3285" style="opacity:1;fill:#3232ff;fill-opacity:1;fill-rule:evenodd;stroke:none;stroke-width:3.99935055;stroke-linecap:butt;stroke-linejoin:miter;marker:none;marker-start:none;marker-mid:none;marker-end:none;stroke-miterlimit:4;stroke-dasharray:none;stroke-dashoffset:0;stroke-opacity:1;visibility:visible;display:inline;overflow:visible;enable-background:accumulate"/>
      <path d="M -34.620857,103.04496 L -77.999999,103.04496 L -121.37914,103.04496 L -99.689572,65.477521 L -78,27.91008 L -56.310429,65.477519 L -34.620857,103.04496 z" transform="matrix(0.2189146,0.1208168,-0.1208168,0.2189146,552.08592,566.62284)" id="path3287" style="opacity:1;fill:#3232ff;fill-opacity:1;fill-rule:evenodd;stroke:none;stroke-width:3.99935055;stroke-linecap:butt;stroke-linejoin:miter;marker:none;marker-start:none;marker-mid:none;marker-end:none;stroke-miterlimit:4;stroke-dasharray:none;stroke-dashoffset:0;stroke-opacity:1;visibility:visible;display:inline;overflow:visible;enable-background:accumulate"/>
      <path d="M -34.620857,103.04496 L -77.999999,103.04496 L -121.37914,103.04496 L -99.689572,65.477521 L -78,27.91008 L -56.310429,65.477519 L -34.620857,103.04496 z" transform="matrix(0.2193129,-0.1200922,0.1200922,0.2193129,556.56388,548.71969)" id="path3289" style="opacity:1;fill:#3232ff;fill-opacity:1;fill-rule:evenodd;stroke:none;stroke-width:3.99935055;stroke-linecap:butt;stroke-linejoin:miter;marker:none;marker-start:none;marker-mid:none;marker-end:none;stroke-miterlimit:4;stroke-dasharray:none;stroke-dashoffset:0;stroke-opacity:1;visibility:visible;display:inline;overflow:visible;enable-background:accumulate"/>
      <path d="M -34.620857,103.04496 L -77.999999,103.04496 L -121.37914,103.04496 L -99.689572,65.477521 L -78,27.91008 L -56.310429,65.477519 L -34.620857,103.04496 z" transform="matrix(-8.1993152e-3,0.2499061,-0.2499061,-8.1993152e-3,299.03577,396.80781)" id="path3291" style="opacity:1;fill:#3232ff;fill-opacity:1;fill-rule:evenodd;stroke:none;stroke-width:3.99935055;stroke-linecap:butt;stroke-linejoin:miter;marker:none;marker-start:none;marker-mid:none;marker-end:none;stroke-miterlimit:4;stroke-dasharray:none;stroke-dashoffset:0;stroke-opacity:1;visibility:visible;display:inline;overflow:visible;enable-background:accumulate"/>
      <path d="M -34.620857,103.04496 L -77.999999,103.04496 L -121.37914,103.04496 L -99.689572,65.477521 L -78,27.91008 L -56.310429,65.477519 L -34.620857,103.04496 z" transform="matrix(0.2500232,-2.947805e-3,2.947805e-3,0.2500232,349.83234,349.04767)" id="path3293" style="opacity:1;fill:#3232ff;fill-opacity:1;fill-rule:evenodd;stroke:none;stroke-width:3.99935055;stroke-linecap:butt;stroke-linejoin:miter;marker:none;marker-start:none;marker-mid:none;marker-end:none;stroke-miterlimit:4;stroke-dasharray:none;stroke-dashoffset:0;stroke-opacity:1;visibility:visible;display:inline;overflow:visible;enable-background:accumulate"/>
      <path d="M -34.620857,103.04496 L -77.999999,103.04496 L -121.37914,103.04496 L -99.689572,65.477521 L -78,27.91008 L -56.310429,65.477519 L -34.620857,103.04496 z" transform="matrix(0.2383885,7.5440239e-2,-7.5440239e-2,0.2383885,404.22489,360.34122)" id="path3295" style="opacity:1;fill:#3232ff;fill-opacity:1;fill-rule:evenodd;stroke:none;stroke-width:3.99935055;stroke-linecap:butt;stroke-linejoin:miter;marker:none;marker-start:none;marker-mid:none;marker-end:none;stroke-miterlimit:4;stroke-dasharray:none;stroke-dashoffset:0;stroke-opacity:1;visibility:visible;display:inline;overflow:visible;enable-background:accumulate"/>
      <path d="M -34.620857,103.04496 L -77.999999,103.04496 L -121.37914,103.04496 L -99.689572,65.477521 L -78,27.91008 L -56.310429,65.477519 L -34.620857,103.04496 z" transform="matrix(0.2134921,0.1301592,-0.1301592,0.2134921,454.97736,384.92792)" id="path3297" style="opacity:1;fill:#3232ff;fill-opacity:1;fill-rule:evenodd;stroke:none;stroke-width:3.99935055;stroke-linecap:butt;stroke-linejoin:miter;marker:none;marker-start:none;marker-mid:none;marker-end:none;stroke-miterlimit:4;stroke-dasharray:none;stroke-dashoffset:0;stroke-opacity:1;visibility:visible;display:inline;overflow:visible;enable-background:accumulate"/>
      <path d="M -34.620857,103.04496 L -77.999999,103.04496 L -121.37914,103.04496 L -99.689572,65.477521 L -78,27.91008 L -56.310429,65.477519 L -34.620857,103.04496 z" transform="matrix(0.2497675,-1.1683794e-2,1.1683794e-2,0.2497675,463.77509,415.48681)" id="path3299" style="opacity:1;fill:#3232ff;fill-opacity:1;fill-rule:evenodd;stroke:none;stroke-width:3.99935055;stroke-linecap:butt;stroke-linejoin:miter;marker:none;marker-start:none;marker-mid:none;marker-end:none;stroke-miterlimit:4;stroke-dasharray:none;stroke-dashoffset:0;stroke-opacity:1;visibility:visible;display:inline;overflow:visible;enable-background:accumulate"/>
      <path d="M -34.620857,103.04496 L -77.999999,103.04496 L -121.37914,103.04496 L -99.689572,65.477521 L -78,27.91008 L -56.310429,65.477519 L -34.620857,103.04496 z" transform="matrix(0.1213948,0.2185946,-0.2185946,0.1213948,438.71325,464.35944)" id="path3301" style="opacity:1;fill:#3232ff;fill-opacity:1;fill-rule:evenodd;stroke:none;stroke-width:3.99935055;stroke-linecap:butt;stroke-linejoin:miter;marker:none;marker-start:none;marker-mid:none;marker-end:none;stroke-miterlimit:4;stroke-dasharray:none;stroke-dashoffset:0;stroke-opacity:1;visibility:visible;display:inline;overflow:visible;enable-background:accumulate"/>
      <path d="M -34.620857,103.04496 L -77.999999,103.04496 L -121.37914,103.04496 L -99.689572,65.477521 L -78,27.91008 L -56.310429,65.477519 L -34.620857,103.04496 z" transform="matrix(9.6504073e-6,0.2500406,-0.2500406,9.6504073e-6,392.41911,465.19752)" id="path3303" style="opacity:1;fill:#3232ff;fill-opacity:1;fill-rule:evenodd;stroke:none;stroke-width:3.99935055;stroke-linecap:butt;stroke-linejoin:miter;marker:none;marker-start:none;marker-mid:none;marker-end:none;stroke-miterlimit:4;stroke-dasharray:none;stroke-dashoffset:0;stroke-opacity:1;visibility:visible;display:inline;overflow:visible;enable-background:accumulate"/>
      <path d="M -34.620857,103.04496 L -77.999999,103.04496 L -121.37914,103.04496 L -99.689572,65.477521 L -78,27.91008 L -56.310429,65.477519 L -34.620857,103.04496 z" transform="matrix(4.6992837e-2,0.2455849,-0.2455849,4.6992837e-2,354.91325,443.66331)" id="path3305" style="opacity:1;fill:#3232ff;fill-opacity:1;fill-rule:evenodd;stroke:none;stroke-width:3.99935055;stroke-linecap:butt;stroke-linejoin:miter;marker:none;marker-start:none;marker-mid:none;marker-end:none;stroke-miterlimit:4;stroke-dasharray:none;stroke-dashoffset:0;stroke-opacity:1;visibility:visible;display:inline;overflow:visible;enable-background:accumulate"/>
      <path d="M -34.620857,103.04496 L -77.999999,103.04496 L -121.37914,103.04496 L -99.689572,65.477521 L -78,27.91008 L -56.310429,65.477519 L -34.620857,103.04496 z" transform="matrix(6.0377298e-2,0.2426415,-0.2426415,6.0377298e-2,305.39321,433.81698)" id="path3307" style="opacity:1;fill:#3232ff;fill-opacity:1;fill-rule:evenodd;stroke:none;stroke-width:3.99935055;stroke-linecap:butt;stroke-linejoin:miter;marker:none;marker-start:none;marker-mid:none;marker-end:none;stroke-miterlimit:4;stroke-dasharray:none;stroke-dashoffset:0;stroke-opacity:1;visibility:visible;display:inline;overflow:visible;enable-background:accumulate"/>
      <path d="M -34.620857,103.04496 L -77.999999,103.04496 L -121.37914,103.04496 L -99.689572,65.477521 L -78,27.91008 L -56.310429,65.477519 L -34.620857,103.04496 z" transform="matrix(0.2499131,7.985029e-3,-7.985029e-3,0.2499131,244.46937,389.09021)" id="path3309" style="opacity:1;fill:#3232ff;fill-opacity:1;fill-rule:evenodd;stroke:none;stroke-width:3.99935055;stroke-linecap:butt;stroke-linejoin:miter;marker:none;marker-start:none;marker-mid:none;marker-end:none;stroke-miterlimit:4;stroke-dasharray:none;stroke-dashoffset:0;stroke-opacity:1;visibility:visible;display:inline;overflow:visible;enable-background:accumulate"/>
      <path d="M -34.620857,103.04496 L -77.999999,103.04496 L -121.37914,103.04496 L -99.689572,65.477521 L -78,27.91008 L -56.310429,65.477519 L -34.620857,103.04496 z" transform="matrix(0.1560717,0.1953507,-0.1953507,0.1560717,251.51234,745.57114)" id="path3311" style="opacity:1;fill:#3232ff;fill-opacity:1;fill-rule:evenodd;stroke:none;stroke-width:3.99935055;stroke-linecap:butt;stroke-linejoin:miter;marker:none;marker-start:none;marker-mid:none;marker-end:none;stroke-miterlimit:4;stroke-dasharray:none;stroke-dashoffset:0;stroke-opacity:1;visibility:visible;display:inline;overflow:visible;enable-background:accumulate"/>
      <path d="M -34.620857,103.04496 L -77.999999,103.04496 L -121.37914,103.04496 L -99.689572,65.477521 L -78,27.91008 L -56.310429,65.477519 L -34.620857,103.04496 z" transform="matrix(1.6571111e-2,0.2494909,-0.2494909,1.6571111e-2,300.66692,793.54524)" id="path3313" style="opacity:1;fill:#3232ff;fill-opacity:1;fill-rule:evenodd;stroke:none;stroke-width:3.99935055;stroke-linecap:butt;stroke-linejoin:miter;marker:none;marker-start:none;marker-mid:none;marker-end:none;stroke-miterlimit:4;stroke-dasharray:none;stroke-dashoffset:0;stroke-opacity:1;visibility:visible;display:inline;overflow:visible;enable-background:accumulate"/>
      <path d="M -34.620857,103.04496 L -77.999999,103.04496 L -121.37914,103.04496 L -99.689572,65.477521 L -78,27.91008 L -56.310429,65.477519 L -34.620857,103.04496 z" transform="matrix(0.1144106,0.2223297,-0.2223297,0.1144106,356.73452,789.99568)" id="path3315" style="opacity:1;fill:#3232ff;fill-opacity:1;fill-rule:evenodd;stroke:none;stroke-width:3.99935055;stroke-linecap:butt;stroke-linejoin:miter;marker:none;marker-start:none;marker-mid:none;marker-end:none;stroke-miterlimit:4;stroke-dasharray:none;stroke-dashoffset:0;stroke-opacity:1;visibility:visible;display:inline;overflow:visible;enable-background:accumulate"/>
      <path d="M -34.620857,103.04496 L -77.999999,103.04496 L -121.37914,103.04496 L -99.689572,65.477521 L -78,27.91008 L -56.310429,65.477519 L -34.620857,103.04496 z" transform="matrix(0.1804433,0.173091,-0.173091,0.1804433,407.7706,778.04959)" id="path3317" style="opacity:1;fill:#3232ff;fill-opacity:1;fill-rule:evenodd;stroke:none;stroke-width:3.99935055;stroke-linecap:butt;stroke-linejoin:miter;marker:none;marker-start:none;marker-mid:none;marker-end:none;stroke-miterlimit:4;stroke-dasharray:none;stroke-dashoffset:0;stroke-opacity:1;visibility:visible;display:inline;overflow:visible;enable-background:accumulate"/>
      <path d="M -34.620857,103.04496 L -77.999999,103.04496 L -121.37914,103.04496 L -99.689572,65.477521 L -78,27.91008 L -56.310429,65.477519 L -34.620857,103.04496 z" transform="matrix(0.2329003,9.0982023e-2,-9.0982023e-2,0.2329003,452.55915,748.94006)" id="path3319" style="opacity:1;fill:#3232ff;fill-opacity:1;fill-rule:evenodd;stroke:none;stroke-width:3.99935055;stroke-linecap:butt;stroke-linejoin:miter;marker:none;marker-start:none;marker-mid:none;marker-end:none;stroke-miterlimit:4;stroke-dasharray:none;stroke-dashoffset:0;stroke-opacity:1;visibility:visible;display:inline;overflow:visible;enable-background:accumulate"/>
      <path d="M -34.620857,103.04496 L -77.999999,103.04496 L -121.37914,103.04496 L -99.689572,65.477521 L -78,27.91008 L -56.310429,65.477519 L -34.620857,103.04496 z" transform="matrix(0.1020852,0.2282518,-0.2282518,0.1020852,470.13358,725.6552)" id="path3321" style="opacity:1;fill:#3232ff;fill-opacity:1;fill-rule:evenodd;stroke:none;stroke-width:3.99935055;stroke-linecap:butt;stroke-linejoin:miter;marker:none;marker-start:none;marker-mid:none;marker-end:none;stroke-miterlimit:4;stroke-dasharray:none;stroke-dashoffset:0;stroke-opacity:1;visibility:visible;display:inline;overflow:visible;enable-background:accumulate"/>
      <path d="M -34.620857,103.04496 L -77.999999,103.04496 L -121.37914,103.04496 L -99.689572,65.477521 L -78,27.91008 L -56.310429,65.477519 L -34.620857,103.04496 z" transform="matrix(0.2500265,2.6496217e-3,-2.6496217e-3,0.2500265,432.80894,676.49222)" id="path3323" style="opacity:1;fill:#3232ff;fill-opacity:1;fill-rule:evenodd;stroke:none;stroke-width:3.99935055;stroke-linecap:butt;stroke-linejoin:miter;marker:none;marker-start:none;marker-mid:none;marker-end:none;stroke-miterlimit:4;stroke-dasharray:none;stroke-dashoffset:0;stroke-opacity:1;visibility:visible;display:inline;overflow:visible;enable-background:accumulate"/>
      <path d="M -34.620857,103.04496 L -77.999999,103.04496 L -121.37914,103.04496 L -99.689572,65.477521 L -78,27.91008 L -56.310429,65.477519 L -34.620857,103.04496 z" transform="matrix(0.2227206,-0.1136478,0.1136478,0.2227206,382.05099,680.86979)" id="path3325" style="opacity:1;fill:#3232ff;fill-opacity:1;fill-rule:evenodd;stroke:none;stroke-width:3.99935055;stroke-linecap:butt;stroke-linejoin:miter;marker:none;marker-start:none;marker-mid:none;marker-end:none;stroke-miterlimit:4;stroke-dasharray:none;stroke-dashoffset:0;stroke-opacity:1;visibility:visible;display:inline;overflow:visible;enable-background:accumulate"/>
      <path d="M -34.620857,103.04496 L -77.999999,103.04496 L -121.37914,103.04496 L -99.689572,65.477521 L -78,27.91008 L -56.310429,65.477519 L -34.620857,103.04496 z" transform="matrix(-5.4212207e-2,0.2440929,-0.2440929,-5.4212207e-2,346.44394,746.70186)" id="path3327" style="opacity:1;fill:#3232ff;fill-opacity:1;fill-rule:evenodd;stroke:none;stroke-width:3.99935055;stroke-linecap:butt;stroke-linejoin:miter;marker:none;marker-start:none;marker-mid:none;marker-end:none;stroke-miterlimit:4;stroke-dasharray:none;stroke-dashoffset:0;stroke-opacity:1;visibility:visible;display:inline;overflow:visible;enable-background:accumulate"/>
      <path d="M -34.620857,103.04496 L -77.999999,103.04496 L -121.37914,103.04496 L -99.689572,65.477521 L -78,27.91008 L -56.310429,65.477519 L -34.620857,103.04496 z" transform="matrix(0.234675,-8.6301543e-2,8.6301543e-2,0.234675,292.76634,706.1833)" id="path3329" style="opacity:1;fill:#3232ff;fill-opacity:1;fill-rule:evenodd;stroke:none;stroke-width:3.99935055;stroke-linecap:butt;stroke-linejoin:miter;marker:none;marker-start:none;marker-mid:none;marker-end:none;stroke-miterlimit:4;stroke-dasharray:none;stroke-dashoffset:0;stroke-opacity:1;visibility:visible;display:inline;overflow:visible;enable-background:accumulate"/>
    </g>
    <g transform="translate(740,0)" id="g3688">
      <path d="M 241.5175,211.42357 A 26.616943,26.438305 0 1 1 188.28362,211.42357 A 26.616943,26.438305 0 1 1 241.5175,211.42357 z" transform="matrix(7.0237978,0,0,6.7226892,-1661.723,-557.40214)" id="path3368" style="fill:#ffe01e;fill-opacity:1;fill-rule:evenodd;stroke:#ffffff;stroke-width:0.80000001;stroke-linecap:butt;stroke-linejoin:miter;marker:none;marker-start:none;marker-mid:none;marker-end:none;stroke-miterlimit:4;stroke-dasharray:none;stroke-dashoffset:0;stroke-opacity:1;visibility:visible;display:inline;overflow:visible;filter:url(#filter4504);enable-background:accumulate"/>
      <g id="g3632">
        <path d="M 241.5175,211.42357 A 26.616943,26.438305 0 1 1 188.28362,211.42357 A 26.616943,26.438305 0 1 1 241.5175,211.42357 z" transform="matrix(7.0237978,0,0,6.7226892,-1669.9385,-557.40213)" id="path4446" style="opacity:0.71666721;fill:#ffe01e;fill-opacity:1;fill-rule:evenodd;stroke:#ffffff;stroke-width:0.80000001;stroke-linecap:butt;stroke-linejoin:miter;marker:none;marker-start:none;marker-mid:none;marker-end:none;stroke-miterlimit:4;stroke-dasharray:none;stroke-dashoffset:0;stroke-opacity:1;visibility:visible;display:inline;overflow:visible;filter:url(#filter4480);enable-background:accumulate"/>
        <path d="M 276.58929,491.25058 L 275.62054,491.43808 L 292.46429,573.56308 L 292.46429,574.43808 L 257.15179,497.75058 L 256.24554,498.18808 L 291.15179,574.06308 L 242.65179,505.28183 L 241.83929,505.84433 L 292.12054,577.21933 L 229.37054,517.37558 L 228.68304,518.09433 L 288.65179,575.28183 L 218.27679,530.59433 L 217.74554,531.40683 L 288.30804,576.28183 L 211.90179,541.96933 L 211.49554,542.87558 L 290.46429,578.34433 L 205.12054,563.46933 L 204.96429,564.46933 L 289.77679,579.25058 L 206.71429,594.28183 L 206.90179,595.28183 L 290.74554,580.12558 L 290.68304,580.18808 L 212.46429,613.96933 L 212.87054,614.90683 L 286.08929,583.25058 L 219.83929,627.68808 L 220.40179,628.53183 L 291.40179,580.96933 L 291.68304,580.84433 L 291.62054,580.93808 L 230.71429,641.87558 L 231.43304,642.59433 L 288.68304,585.31308 L 243.77679,652.43808 L 244.62054,653.00058 L 289.49554,585.96933 L 254.62054,658.90683 L 255.52679,659.34433 L 291.87054,583.31308 L 275.40179,666.25058 L 276.40179,666.43808 L 292.46429,585.62558 L 292.83929,668.75058 L 293.83929,668.75058 L 293.46429,580.68808 L 293.49554,580.50058 L 293.80804,580.18808 L 293.87054,580.25058 L 312.02679,668.81308 L 312.99554,668.62558 L 295.52679,583.50058 L 331.93304,662.65683 L 332.83929,662.25058 L 296.52679,583.40683 L 346.18304,653.84433 L 346.99554,653.28183 L 298.87054,585.00058 L 359.71429,643.06308 L 360.40179,642.34433 L 296.68304,581.59433 L 370.55804,628.56308 L 371.08929,627.71933 L 300.62054,582.90683 L 376.65179,617.09433 L 377.05804,616.18808 L 297.96429,580.65683 L 383.33929,595.59433 L 383.49554,594.59433 L 295.43304,579.25058 L 380.15179,563.93808 L 379.99554,562.93808 L 299.40179,577.53183 L 374.49554,545.09433 L 374.08929,544.15683 L 296.15179,577.84433 L 296.43304,577.56308 L 366.65179,530.46933 L 366.08929,529.62558 L 300.15179,573.84433 L 355.90179,518.06308 L 355.18304,517.34433 L 295.77679,576.78183 L 295.52679,576.93808 L 342.52679,506.68808 L 341.68304,506.09433 L 296.40179,573.84433 L 331.43304,500.46933 L 330.52679,500.03183 L 294.49554,575.50058 L 310.71429,493.75058 L 309.74554,493.56308 L 293.68304,574.37558 L 293.46429,573.31308 L 293.12054,492.68808 L 292.12054,492.68808 L 292.43304,568.40683 L 276.58929,491.25058 z" transform="matrix(2.2053871,0,0,2.2053871,-804.74677,-408.89073)" id="path5428" style="opacity:0.96000001;fill:#000000;fill-opacity:1;fill-rule:evenodd;stroke:none;stroke-width:1px;stroke-linecap:butt;stroke-linejoin:miter;marker:none;marker-start:none;marker-mid:none;marker-end:none;stroke-miterlimit:4;stroke-dasharray:none;stroke-dashoffset:0;stroke-opacity:1;visibility:visible;display:inline;overflow:visible;filter:url(#filter5467);enable-background:accumulate"/>
        <path d="M 241.5175,211.42357 A 26.616943,26.438305 0 1 1 188.28362,211.42357 A 26.616943,26.438305 0 1 1 241.5175,211.42357 z" transform="matrix(2.2053871,0,0,2.2053871,-634.45937,397.66199)" id="path2436" style="fill:#eeff0a;fill-opacity:1;fill-rule:evenodd;stroke:#ffffff;stroke-width:0.80000001;stroke-linecap:butt;stroke-linejoin:miter;marker:none;marker-start:none;marker-mid:none;marker-end:none;stroke-miterlimit:4;stroke-dasharray:none;stroke-dashoffset:0;stroke-opacity:1;visibility:visible;display:inline;overflow:visible;filter:url(#filter4532);enable-background:accumulate"/>
        <g transform="matrix(1.8350173,0,0,2.0723264,-182.95169,-331.95412)" id="g5471">
          <g transform="matrix(0.7110911,0,0,0.7487716,54.34737,150.27095)" id="g4693" style="fill:#fadf00;fill-opacity:1;stroke:none;filter:url(#filter4830)">
            <path d="M -169.61187,224.07293 C -164.54883,219.95921 -166.13103,224.07293 -159.48579,220.27565 C -152.84054,216.47837 -156.32139,213.31397 -162.96663,217.74413 C -169.61187,222.17429 -169.29543,223.44005 -169.61187,224.07293 z" transform="translate(81.214287,365.71933)" id="path4659" style="fill:#fadf00;fill-opacity:1;fill-rule:evenodd;stroke:none;stroke-width:1px;stroke-linecap:butt;stroke-linejoin:miter;stroke-opacity:1"/>
            <path d="M -153.47342,205.40297 C -149.3597,212.68109 -152.20766,212.99753 -152.84054,217.42769 C -153.47342,221.85785 -155.68851,223.75649 -150.9419,218.06057 C -146.1953,212.36465 -144.92954,213.94685 -148.09394,208.56737 C -151.25834,203.18788 -153.15698,205.40297 -153.47342,205.40297 z" transform="translate(81.214287,365.71933)" id="path4661" style="fill:#fadf00;fill-opacity:1;fill-rule:evenodd;stroke:none;stroke-width:1px;stroke-linecap:butt;stroke-linejoin:miter;stroke-opacity:1"/>
            <path d="M -139.8665,199.3906 C -137.33498,202.87144 -141.4487,209.51669 -137.33498,208.88381 C -133.22126,208.25093 -133.85414,203.18788 -135.75278,201.92212 C -137.65142,200.65636 -139.55006,198.12484 -139.8665,199.3906 z" transform="translate(81.214287,365.71933)" id="path4663" style="fill:#fadf00;fill-opacity:1;fill-rule:evenodd;stroke:none;stroke-width:1px;stroke-linecap:butt;stroke-linejoin:miter;stroke-opacity:1"/>
            <path d="M -153.15698,196.2262 C -152.5241,199.70704 -152.20766,210.46601 -148.41038,205.71941 C -144.6131,200.9728 -145.87886,196.2262 -147.46106,196.54264 C -149.04326,196.85908 -154.1063,194.96044 -153.15698,196.2262 z" transform="translate(81.214287,365.71933)" id="path4665" style="fill:#fadf00;fill-opacity:1;fill-rule:evenodd;stroke:none;stroke-width:1px;stroke-linecap:butt;stroke-linejoin:miter;stroke-opacity:1"/>
            <path d="M -152.20766,182.30284 C -151.89122,187.68232 -154.73919,192.11248 -149.3597,192.11248 C -143.98022,192.11248 -140.18294,186.733 -142.39802,186.41656 C -144.6131,186.10012 -152.5241,181.35352 -152.20766,182.30284 z" transform="translate(81.214287,365.71933)" id="path4667" style="fill:#fadf00;fill-opacity:1;fill-rule:evenodd;stroke:none;stroke-width:1px;stroke-linecap:butt;stroke-linejoin:miter;stroke-opacity:1"/>
            <path d="M -163.59951,190.21384 C -165.49815,196.85908 -163.91595,200.65636 -161.38443,199.70704 C -158.85291,198.75772 -154.73919,192.42892 -156.00495,192.42892 C -157.27071,192.42892 -164.86527,189.58096 -163.59951,190.21384 z" transform="translate(81.214287,365.71933)" id="path4669" style="fill:#fadf00;fill-opacity:1;fill-rule:evenodd;stroke:none;stroke-width:1px;stroke-linecap:butt;stroke-linejoin:miter;stroke-opacity:1"/>
            <path d="M -170.56119,206.03585 C -171.51051,209.51669 -170.87763,213.63041 -170.87763,213.63041 C -170.87763,213.63041 -162.01731,210.46601 -164.86527,206.66873 C -167.71323,202.87144 -170.87763,206.35229 -170.56119,206.03585 z" transform="translate(81.214287,365.71933)" id="path4671" style="fill:#fadf00;fill-opacity:1;fill-rule:evenodd;stroke:none;stroke-width:1px;stroke-linecap:butt;stroke-linejoin:miter;stroke-opacity:1"/>
            <path d="M -171.51051,191.79604 C -175.30779,198.44128 -175.62423,200.33992 -173.72559,199.70704 C -171.82695,199.07416 -170.24475,192.11248 -171.51051,191.79604 z" transform="translate(81.214287,365.71933)" id="path4673" style="fill:#fadf00;fill-opacity:1;fill-rule:evenodd;stroke:none;stroke-width:1px;stroke-linecap:butt;stroke-linejoin:miter;stroke-opacity:1"/>
            <path d="M -148.41038,175.97404 C -149.04326,178.50556 -141.4487,181.9864 -141.4487,181.9864 C -141.4487,181.9864 -138.60074,170.911 -142.71446,173.44252 C -146.82818,175.97404 -148.72682,176.92336 -148.41038,175.97404 z" transform="translate(81.214287,365.71933)" id="path4675" style="fill:#fadf00;fill-opacity:1;fill-rule:evenodd;stroke:none;stroke-width:1px;stroke-linecap:butt;stroke-linejoin:miter;stroke-opacity:1"/>
            <path d="M -128.7911,194.32756 C -126.89246,198.12484 -120.24722,207.93449 -118.98146,202.87144 C -117.7157,197.8084 -128.7911,193.69468 -128.7911,194.32756 z" transform="translate(81.214287,365.71933)" id="path4677" style="fill:#fadf00;fill-opacity:1;fill-rule:evenodd;stroke:none;stroke-width:1px;stroke-linecap:butt;stroke-linejoin:miter;stroke-opacity:1"/>
            <path d="M -132.90482,214.26329 C -133.22126,217.11125 -139.8665,232.30037 -135.1199,225.65513 C -130.3733,219.00989 -132.27194,212.68109 -132.90482,214.26329 z" transform="translate(81.214287,365.71933)" id="path4679" style="fill:#fadf00;fill-opacity:1;fill-rule:evenodd;stroke:none;stroke-width:1px;stroke-linecap:butt;stroke-linejoin:miter;stroke-opacity:1"/>
            <path d="M -125.6267,218.06057 C -123.09518,217.11125 -113.28554,213.94685 -113.28554,213.94685 C -113.28554,213.94685 -116.76638,221.85785 -118.98146,220.90853 C -121.19654,219.95921 -126.89246,217.42769 -125.6267,218.06057 z" transform="translate(81.214287,365.71933)" id="path4681" style="fill:#fadf00;fill-opacity:1;fill-rule:evenodd;stroke:none;stroke-width:1px;stroke-linecap:butt;stroke-linejoin:miter;stroke-opacity:1"/>
            <path d="M -129.74042,203.50433 C -129.74042,205.71941 -129.74042,212.36465 -129.74042,212.36465 C -129.74042,212.36465 -124.36094,211.73177 -124.0445,209.83313 C -123.72806,207.93449 -126.57602,202.555 -128.15822,203.18788 C -129.74042,203.82077 -128.7911,203.50433 -129.74042,203.50433 z" transform="translate(81.214287,365.71933)" id="path4683" style="fill:#fadf00;fill-opacity:1;fill-rule:evenodd;stroke:none;stroke-width:1px;stroke-linecap:butt;stroke-linejoin:miter;stroke-opacity:1"/>
            <path d="M -131.63906,178.18912 C -134.80346,184.83436 -139.8665,188.94808 -133.85414,188.63164 C -127.84178,188.3152 -126.89246,185.78368 -128.47466,184.20148 C -130.05686,182.61928 -131.00618,178.50556 -131.63906,178.18912 z" transform="translate(81.214287,365.71933)" id="path4685" style="fill:#fadf00;fill-opacity:1;fill-rule:evenodd;stroke:none;stroke-width:1px;stroke-linecap:butt;stroke-linejoin:miter;stroke-opacity:1"/>
            <path d="M -116.44994,188.3152 C -116.44994,188.3152 -117.7157,200.65636 -113.60198,198.44128 C -109.48826,196.2262 -112.01978,187.99876 -112.01978,187.99876 L -116.44994,188.3152 z" transform="translate(81.214287,365.71933)" id="path4687" style="fill:#fadf00;fill-opacity:1;fill-rule:evenodd;stroke:none;stroke-width:1px;stroke-linecap:butt;stroke-linejoin:miter;stroke-opacity:1"/>
            <path d="M -152.84054,231.98393 C -151.25834,233.24969 -148.41038,242.74289 -144.6131,237.36341 C -140.81582,231.98393 -140.18294,231.66749 -140.18294,231.66749 C -140.18294,231.66749 -144.6131,224.07293 -147.7775,224.70581 C -150.9419,225.33869 -152.5241,232.30037 -152.84054,231.98393 z" transform="translate(81.214287,365.71933)" id="path4689" style="fill:#fadf00;fill-opacity:1;fill-rule:evenodd;stroke:none;stroke-width:1px;stroke-linecap:butt;stroke-linejoin:miter;stroke-opacity:1"/>
            <path d="M -129.42398,229.45241 C -131.00618,234.19901 -130.3733,234.51545 -128.7911,233.88257 C -127.2089,233.24969 -119.61434,225.97157 -123.09518,225.65513 C -126.57602,225.33869 -130.3733,230.71817 -129.42398,229.45241 z" transform="translate(81.214287,365.71933)" id="path4691" style="fill:#fadf00;fill-opacity:1;fill-rule:evenodd;stroke:none;stroke-width:1px;stroke-linecap:butt;stroke-linejoin:miter;stroke-opacity:1"/>
          </g>
          <g transform="matrix(0.7110911,0,0,0.7487716,54.34737,150.27095)" id="g4748" style="fill:#ffeb00;fill-opacity:1;stroke:none;filter:url(#filter4834)">
            <path d="M -164.23239,225.97157 C -162.33375,229.76885 -160.75155,238.62917 -158.85291,233.88257 C -156.95427,229.13597 -157.27071,223.75649 -158.85291,224.07293 C -160.43511,224.38937 -164.23239,225.65513 -164.23239,225.97157 z" transform="translate(81.214287,365.71933)" id="path4712" style="fill:#ffeb00;fill-opacity:1;fill-rule:evenodd;stroke:none;stroke-width:1px;stroke-linecap:butt;stroke-linejoin:miter;stroke-opacity:1"/>
            <path d="M -160.43511,203.18788 C -161.38443,207.93449 -158.22003,211.41533 -157.27071,209.83313 C -156.32139,208.25093 -151.89122,202.23856 -154.42275,201.60568 C -156.95427,200.9728 -161.06799,201.28924 -161.06799,201.28924 L -160.43511,203.18788 z" transform="translate(81.214287,365.71933)" id="path4714" style="fill:#ffeb00;fill-opacity:1;fill-rule:evenodd;stroke:none;stroke-width:1px;stroke-linecap:butt;stroke-linejoin:miter;stroke-opacity:1"/>
            <path d="M -157.90359,194.32756 C -160.75155,198.44128 -156.63783,201.28924 -156.63783,201.28924 L -148.09394,198.75772 L -153.15698,191.79604 L -157.90359,194.32756 z" transform="translate(81.214287,365.71933)" id="path4716" style="fill:#ffeb00;fill-opacity:1;fill-rule:evenodd;stroke:none;stroke-width:1px;stroke-linecap:butt;stroke-linejoin:miter;stroke-opacity:1"/>
            <path d="M -138.2843,190.21384 C -144.6131,194.644 -146.1953,200.65636 -146.1953,200.65636 C -146.1953,200.65636 -136.7021,199.3906 -137.01854,197.8084 C -137.33498,196.2262 -138.91718,189.8974 -138.2843,190.21384 z" transform="translate(81.214287,365.71933)" id="path4718" style="fill:#ffeb00;fill-opacity:1;fill-rule:evenodd;stroke:none;stroke-width:1px;stroke-linecap:butt;stroke-linejoin:miter;stroke-opacity:1"/>
            <path d="M -124.67738,185.78368 C -127.52534,188.94808 -131.00618,190.84672 -127.84178,193.0618 C -124.67738,195.27688 -122.4623,196.85908 -121.19654,194.644 C -119.93078,192.42892 -118.34858,185.78368 -120.8801,185.78368 C -123.41162,185.78368 -125.31026,186.733 -124.67738,185.78368 z" transform="translate(81.214287,365.71933)" id="path4720" style="fill:#ffeb00;fill-opacity:1;fill-rule:evenodd;stroke:none;stroke-width:1px;stroke-linecap:butt;stroke-linejoin:miter;stroke-opacity:1"/>
            <path d="M -132.27194,173.44252 C -133.5377,175.6576 -131.9555,180.08776 -129.74042,180.08776 C -127.52534,180.08776 -120.8801,177.2398 -123.41162,175.34116 C -125.94314,173.44252 -132.90482,173.44252 -132.27194,173.44252 z" transform="translate(81.214287,365.71933)" id="path4722" style="fill:#ffeb00;fill-opacity:1;fill-rule:evenodd;stroke:none;stroke-width:1px;stroke-linecap:butt;stroke-linejoin:miter;stroke-opacity:1"/>
            <path d="M -157.27071,179.13844 C -160.43511,180.72064 -159.48579,186.10012 -157.58715,185.78368 C -155.68851,185.46724 -147.46106,180.4042 -148.72682,179.13844 C -149.99258,177.87268 -155.05563,175.6576 -155.05563,175.6576 L -157.27071,179.13844 z" transform="translate(81.214287,365.71933)" id="path4724" style="fill:#ffeb00;fill-opacity:1;fill-rule:evenodd;stroke:none;stroke-width:1px;stroke-linecap:butt;stroke-linejoin:miter;stroke-opacity:1"/>
            <path d="M -131.9555,197.17552 C -131.9555,197.17552 -136.7021,201.92212 -135.43634,203.18788 C -134.17058,204.45365 -127.84178,202.555 -127.84178,202.555 L -131.9555,197.17552 z" transform="translate(81.214287,365.71933)" id="path4726" style="fill:#ffeb00;fill-opacity:1;fill-rule:evenodd;stroke:none;stroke-width:1px;stroke-linecap:butt;stroke-linejoin:miter;stroke-opacity:1"/>
            <path d="M -112.9691,204.45365 C -112.9691,204.45365 -121.19654,208.88381 -120.8801,211.09889 C -120.56366,213.31397 -114.23486,216.47837 -112.9691,216.47837 C -111.70334,216.47837 -106.6403,209.20025 -108.2225,208.56737 C -109.8047,207.93449 -112.9691,203.82077 -112.9691,204.45365 z" transform="translate(81.214287,365.71933)" id="path4728" style="fill:#ffeb00;fill-opacity:1;fill-rule:evenodd;stroke:none;stroke-width:1px;stroke-linecap:butt;stroke-linejoin:miter;stroke-opacity:1"/>
            <path d="M -134.80346,212.99753 C -134.80346,212.99753 -145.87886,219.00989 -144.29666,220.59209 C -142.71446,222.17429 -137.65142,223.75649 -137.65142,223.75649 C -137.65142,223.75649 -132.90482,219.32633 -133.22126,217.11125 C -133.5377,214.89617 -134.80346,212.04821 -134.80346,212.99753 z" transform="translate(81.214287,365.71933)" id="path4730" style="fill:#ffeb00;fill-opacity:1;fill-rule:evenodd;stroke:none;stroke-width:1px;stroke-linecap:butt;stroke-linejoin:miter;stroke-opacity:1"/>
            <path d="M -165.18171,207.61805 L -162.65019,214.57973 L -155.05563,212.04821 L -165.18171,207.61805 z" transform="translate(81.214287,365.71933)" id="path4732" style="fill:#ffeb00;fill-opacity:1;fill-rule:evenodd;stroke:none;stroke-width:1px;stroke-linecap:butt;stroke-linejoin:miter;stroke-opacity:1"/>
            <path d="M -170.24475,185.1508 L -173.09271,193.0618 C -173.09271,193.0618 -165.81459,195.90976 -164.54883,194.01112 C -163.28307,192.11248 -159.16935,182.61928 -160.43511,182.61928 C -161.70087,182.61928 -167.08035,182.61928 -170.24475,185.1508 z" transform="translate(81.214287,365.71933)" id="path4734" style="fill:#ffeb00;fill-opacity:1;fill-rule:evenodd;stroke:none;stroke-width:1px;stroke-linecap:butt;stroke-linejoin:miter;stroke-opacity:1"/>
            <path d="M -173.40915,214.57973 C -172.45983,219.95921 -174.99135,225.33869 -170.56119,222.17429 C -166.13103,219.00989 -162.96663,219.32633 -166.13103,216.79481 C -169.29543,214.26329 -169.61187,213.63041 -171.19407,213.94685 C -172.77627,214.26329 -173.72559,214.89617 -173.40915,214.57973 z" transform="translate(81.214287,365.71933)" id="path4736" style="fill:#ffeb00;fill-opacity:1;fill-rule:evenodd;stroke:none;stroke-width:1px;stroke-linecap:butt;stroke-linejoin:miter;stroke-opacity:1"/>
            <path d="M -139.23362,230.40173 C -139.8665,235.46477 -143.0309,237.67985 -138.2843,236.73053 C -133.5377,235.78121 -131.32262,231.35105 -131.32262,231.35105 C -131.32262,231.35105 -134.48702,224.07293 -136.38566,225.97157 C -138.2843,227.87021 -138.60074,230.40173 -139.23362,230.40173 z" transform="translate(81.214287,365.71933)" id="path4738" style="fill:#ffeb00;fill-opacity:1;fill-rule:evenodd;stroke:none;stroke-width:1px;stroke-linecap:butt;stroke-linejoin:miter;stroke-opacity:1"/>
            <path d="M -120.56366,224.70581 C -123.09518,229.76885 -124.99382,231.66749 -125.94314,234.19901 C -126.89246,236.73053 -124.36094,237.36341 -119.93078,233.88257 C -115.50062,230.40173 -112.65266,224.07293 -114.23486,224.07293 C -115.81706,224.07293 -121.19654,224.38937 -120.56366,224.70581 z" transform="translate(81.214287,365.71933)" id="path4740" style="fill:#ffeb00;fill-opacity:1;fill-rule:evenodd;stroke:none;stroke-width:1px;stroke-linecap:butt;stroke-linejoin:miter;stroke-opacity:1"/>
            <path d="M -128.47466,216.47837 C -134.80346,219.00989 -131.9555,224.38937 -130.68974,223.75649 C -129.42398,223.12361 -125.94314,224.38937 -125.6267,221.54141 C -125.31026,218.69345 -127.2089,217.42769 -128.47466,216.47837 z" transform="translate(81.214287,365.71933)" id="path4742" style="fill:#ffeb00;fill-opacity:1;fill-rule:evenodd;stroke:none;stroke-width:1px;stroke-linecap:butt;stroke-linejoin:miter;stroke-opacity:1"/>
            <path d="M -118.03214,196.85908 C -118.66502,202.23856 -116.76638,203.50433 -115.50062,202.87144 C -114.23486,202.23856 -113.60198,198.75772 -113.60198,198.75772 L -118.03214,196.85908 z" transform="translate(81.214287,365.71933)" id="path4744" style="fill:#ffeb00;fill-opacity:1;fill-rule:evenodd;stroke:none;stroke-width:1px;stroke-linecap:butt;stroke-linejoin:miter;stroke-opacity:1"/>
            <path d="M -144.29666,207.61805 C -146.51174,210.46601 -149.99258,214.57973 -145.56242,214.26329 C -141.13226,213.94685 -135.75278,212.99753 -135.43634,210.46601 C -135.1199,207.93449 -143.66378,207.30161 -144.29666,207.61805 z" transform="translate(81.214287,365.71933)" id="path4746" style="fill:#ffeb00;fill-opacity:1;fill-rule:evenodd;stroke:none;stroke-width:1px;stroke-linecap:butt;stroke-linejoin:miter;stroke-opacity:1"/>
          </g>
          <g transform="matrix(0.6541526,0,0,0.688816,50.98974,184.38047)" id="g4792" style="fill:#fffb28;fill-opacity:1;filter:url(#filter4838)">
            <path d="M -167.71323,195.59332 C -170.87763,199.3906 -177.83931,202.87144 -174.35847,204.45365 C -170.87763,206.03585 -166.76391,210.78245 -166.76391,205.71941 C -166.76391,200.65636 -167.39679,195.90976 -167.71323,195.59332 z" transform="translate(81.214287,365.71933)" id="path4768" style="fill:#fffb28;fill-opacity:1;fill-rule:evenodd;stroke:none;stroke-width:1px;stroke-linecap:butt;stroke-linejoin:miter;stroke-opacity:1"/>
            <path d="M -147.7775,190.84672 C -148.72682,195.59332 -153.47342,198.12484 -150.30902,197.17552 C -147.14462,196.2262 -138.60074,195.59332 -139.8665,192.74536 C -141.13226,189.8974 -136.06922,185.46724 -136.06922,183.88504 C -136.06922,182.30284 -129.74042,174.39184 -134.48702,176.29048 C -139.23362,178.18912 -135.75278,177.2398 -139.23362,182.30284 C -142.71446,187.36588 -149.04326,191.79604 -147.7775,190.84672 z" transform="translate(81.214287,365.71933)" id="path4770" style="fill:#fffb28;fill-opacity:1;fill-rule:evenodd;stroke:none;stroke-width:1px;stroke-linecap:butt;stroke-linejoin:miter;stroke-opacity:1"/>
            <path d="M -158.53647,214.26329 C -159.16935,216.16193 -158.85291,220.90853 -157.27071,221.22497 C -155.68851,221.54141 -149.04326,220.59209 -148.72682,217.11125 C -148.41038,213.63041 -150.30902,200.65636 -151.89122,204.77009 C -153.47342,208.88381 -157.90359,212.99753 -158.53647,214.26329 z" transform="translate(81.214287,365.71933)" id="path4772" style="fill:#fffb28;fill-opacity:1;fill-rule:evenodd;stroke:none;stroke-width:1px;stroke-linecap:butt;stroke-linejoin:miter;stroke-opacity:1"/>
            <path d="M -142.71446,223.75649 C -145.87886,225.97157 -143.66378,234.19901 -142.39802,231.66749 C -141.13226,229.13597 -135.75278,229.13597 -138.2843,225.65513 C -140.81582,222.17429 -142.08158,223.44005 -142.71446,223.75649 z" transform="translate(81.214287,365.71933)" id="path4774" style="fill:#fffb28;fill-opacity:1;fill-rule:evenodd;stroke:none;stroke-width:1px;stroke-linecap:butt;stroke-linejoin:miter;stroke-opacity:1"/>
            <path d="M -117.7157,204.77009 C -124.0445,205.08653 -127.52534,211.41533 -127.52534,211.41533 C -127.52534,211.41533 -132.58838,213.31397 -131.63906,214.57973 C -130.68974,215.84549 -122.4623,217.42769 -120.24722,216.79481 C -118.03214,216.16193 -117.08282,217.42769 -118.66502,214.89617 C -120.24722,212.36465 -122.4623,208.88381 -120.8801,208.56737 C -119.2979,208.25093 -116.76638,203.50433 -117.7157,204.77009 z" transform="translate(81.214287,365.71933)" id="path4776" style="fill:#fffb28;fill-opacity:1;fill-rule:evenodd;stroke:none;stroke-width:1px;stroke-linecap:butt;stroke-linejoin:miter;stroke-opacity:1"/>
            <path d="M -109.8047,193.69468 C -112.9691,204.13721 -116.1335,202.23856 -112.33622,205.40297 C -108.53894,208.56737 -105.0581,210.78245 -105.0581,210.78245 L -109.8047,193.69468 z" transform="translate(81.214287,365.71933)" id="path4778" style="fill:#fffb28;fill-opacity:1;fill-rule:evenodd;stroke:none;stroke-width:1px;stroke-linecap:butt;stroke-linejoin:miter;stroke-opacity:1"/>
            <path d="M -118.34858,177.2398 L -128.15822,179.45488 C -128.15822,179.45488 -130.3733,182.30284 -126.57602,184.51792 C -122.77874,186.733 -118.03214,190.21384 -113.91842,187.68232 C -109.8047,185.1508 -118.03214,177.2398 -118.34858,177.2398 z" transform="translate(81.214287,365.71933)" id="path4780" style="fill:#fffb28;fill-opacity:1;fill-rule:evenodd;stroke:none;stroke-width:1px;stroke-linecap:butt;stroke-linejoin:miter;stroke-opacity:1"/>
            <path d="M -158.53647,228.81953 L -156.32139,235.78121 C -156.32139,235.78121 -152.5241,238.31273 -152.84054,233.56613 C -153.15698,228.81953 -157.90359,228.50309 -158.53647,228.81953 z" transform="translate(81.214287,365.71933)" id="path4782" style="fill:#fffb28;fill-opacity:1;fill-rule:evenodd;stroke:none;stroke-width:1px;stroke-linecap:butt;stroke-linejoin:miter;stroke-opacity:1"/>
            <path d="M -143.66378,169.96168 C -145.24598,169.64524 -154.73919,171.86032 -153.78986,173.44252 C -152.84054,175.02472 -149.04326,177.55624 -149.04326,177.55624 L -142.71446,174.0754 L -143.66378,169.96168 z" transform="translate(81.214287,365.71933)" id="path4784" style="fill:#fffb28;fill-opacity:1;fill-rule:evenodd;stroke:none;stroke-width:1px;stroke-linecap:butt;stroke-linejoin:miter;stroke-opacity:1"/>
            <path d="M -155.37207,184.51792 L -163.28307,189.26452 C -163.28307,189.26452 -150.62546,194.01112 -151.89122,194.96044 C -153.15698,195.90976 -153.78986,185.78368 -153.78986,185.78368 C -153.78986,185.78368 -155.68851,182.30284 -156.95427,183.25216 C -158.22003,184.20148 -154.42275,184.51792 -155.37207,184.51792 z" transform="translate(81.214287,365.71933)" id="path4786" style="fill:#fffb28;fill-opacity:1;fill-rule:evenodd;stroke:none;stroke-width:1px;stroke-linecap:butt;stroke-linejoin:miter;stroke-opacity:1"/>
            <path d="M -148.41038,222.80717 C -148.41038,222.80717 -156.63783,219.95921 -155.37207,225.65513 C -154.1063,231.35105 -151.89122,229.13597 -150.62546,228.18665 C -149.3597,227.23733 -147.7775,223.12361 -148.41038,222.80717 z" transform="translate(81.214287,365.71933)" id="path4788" style="fill:#fffb28;fill-opacity:1;fill-rule:evenodd;stroke:none;stroke-width:1px;stroke-linecap:butt;stroke-linejoin:miter;stroke-opacity:1"/>
            <path d="M -126.57602,192.42892 C -127.52534,191.4796 -124.99382,185.46724 -131.9555,189.8974 C -138.91718,194.32756 -141.76514,195.27688 -137.96786,196.2262 C -134.17058,197.17552 -126.57602,193.0618 -126.57602,192.42892 z" transform="translate(81.214287,365.71933)" id="path4790" style="fill:#fffb28;fill-opacity:1;fill-rule:evenodd;stroke:none;stroke-width:1px;stroke-linecap:butt;stroke-linejoin:miter;stroke-opacity:1"/>
          </g>
        </g>
      </g>
    </g>
    <text x="778.32153" y="941.66907" id="text5601" xml:space="preserve" style="font-size:70.5723877px;font-style:normal;font-variant:normal;font-weight:bold;font-stretch:normal;text-indent:0;text-align:start;text-decoration:none;line-height:125%;letter-spacing:normal;word-spacing:normal;text-transform:none;direction:ltr;block-progression:tb;writing-mode:lr-tb;text-anchor:start;fill:#ffffff;fill-opacity:1;fill-rule:nonzero;stroke:#000000;stroke-width:2.20538712px;stroke-linecap:butt;stroke-linejoin:miter;marker:none;marker-start:none;marker-mid:none;marker-end:none;stroke-miterlimit:4;stroke-dasharray:none;stroke-dashoffset:0;stroke-opacity:0.45882353;visibility:visible;display:inline;overflow:visible;enable-background:accumulate;font-family:Arial;-inkscape-font-specification:Arial Bold"><tspan x="778.32153" y="941.66907" id="tspan5603" style="font-size:70.5723877px;font-style:normal;font-variant:normal;font-weight:bold;font-stretch:normal;text-align:start;line-height:125%;writing-mode:lr-tb;text-anchor:start;fill:#ffffff;fill-opacity:1;stroke:#000000;stroke-width:2.20538712;stroke-opacity:0.45882353;font-family:Arial;-inkscape-font-specification:Arial Bold"><tspan x="778.32153" y="941.66907" id="tspan5605" style="font-size:70.5723877px;font-style:normal;font-variant:normal;font-weight:bold;font-stretch:normal;text-align:start;line-height:125%;writing-mode:lr-tb;text-anchor:start;fill:#ffffff;fill-opacity:1;stroke:#000000;stroke-width:2.20538712;marker:none;marker-start:none;marker-mid:none;marker-end:none;stroke-opacity:0.45882353;font-family:Arial;-inkscape-font-specification:Arial Bold">L1</tspan></tspan></text>
    <text x="1108.3198" y="998.63007" id="text5610" xml:space="preserve" style="font-size:70.5723877px;font-style:normal;font-variant:normal;font-weight:bold;font-stretch:normal;text-indent:0;text-align:start;text-decoration:none;line-height:125%;letter-spacing:normal;word-spacing:normal;text-transform:none;direction:ltr;block-progression:tb;writing-mode:lr-tb;text-anchor:start;fill:#ffffff;fill-opacity:1;fill-rule:nonzero;stroke:#000000;stroke-width:2.20538712px;stroke-linecap:butt;stroke-linejoin:miter;marker:none;marker-start:none;marker-mid:none;marker-end:none;stroke-miterlimit:4;stroke-dasharray:none;stroke-dashoffset:0;stroke-opacity:0.45882353;visibility:visible;display:inline;overflow:visible;enable-background:accumulate;font-family:Arial;-inkscape-font-specification:Arial Bold"><tspan x="1108.3198" y="998.63007" id="tspan5612" style="font-size:70.5723877px;font-style:normal;font-variant:normal;font-weight:bold;font-stretch:normal;text-align:start;line-height:125%;writing-mode:lr-tb;text-anchor:start;fill:#ffffff;fill-opacity:1;stroke:#000000;stroke-width:2.20538712;stroke-opacity:0.45882353;font-family:Arial;-inkscape-font-specification:Arial Bold"><tspan x="1108.3198" y="998.63007" id="tspan5614" style="font-size:70.5723877px;font-style:normal;font-variant:normal;font-weight:bold;font-stretch:normal;text-align:start;line-height:125%;writing-mode:lr-tb;text-anchor:start;fill:#ffffff;fill-opacity:1;stroke:#000000;stroke-width:2.20538712;marker:none;marker-start:none;marker-mid:none;marker-end:none;stroke-opacity:0.45882353;font-family:Arial;-inkscape-font-specification:Arial Bold">L2</tspan></tspan></text>
    <text x="208.96986" y="941.28998" id="text5616" xml:space="preserve" style="font-size:70.5723877px;font-style:normal;font-variant:normal;font-weight:bold;font-stretch:normal;text-indent:0;text-align:start;text-decoration:none;line-height:125%;letter-spacing:normal;word-spacing:normal;text-transform:none;direction:ltr;block-progression:tb;writing-mode:lr-tb;text-anchor:start;fill:#ffffff;fill-opacity:1;fill-rule:nonzero;stroke:#000000;stroke-width:2.20538712px;stroke-linecap:butt;stroke-linejoin:miter;marker:none;marker-start:none;marker-mid:none;marker-end:none;stroke-miterlimit:4;stroke-dasharray:none;stroke-dashoffset:0;stroke-opacity:0.45882353;visibility:visible;display:inline;overflow:visible;enable-background:accumulate;font-family:Arial;-inkscape-font-specification:Arial Bold"><tspan x="208.96986" y="941.28998" id="tspan5618" style="font-size:70.5723877px;font-style:normal;font-variant:normal;font-weight:bold;font-stretch:normal;text-align:start;line-height:125%;writing-mode:lr-tb;text-anchor:start;fill:#ffffff;fill-opacity:1;stroke:#000000;stroke-width:2.20538712;stroke-opacity:0.45882353;font-family:Arial;-inkscape-font-specification:Arial Bold"><tspan x="208.96986" y="941.28998" id="tspan5620" style="font-size:70.5723877px;font-style:normal;font-variant:normal;font-weight:bold;font-stretch:normal;text-align:start;line-height:125%;writing-mode:lr-tb;text-anchor:start;fill:#ffffff;fill-opacity:1;stroke:#000000;stroke-width:2.20538712;marker:none;marker-start:none;marker-mid:none;marker-end:none;stroke-opacity:0.45882353;font-family:Arial;-inkscape-font-specification:Arial Bold">L3</tspan></tspan></text>
    <text x="696.10193" y="504.19254" id="text5622" xml:space="preserve" style="font-size:70.5723877px;font-style:normal;font-variant:normal;font-weight:bold;font-stretch:normal;text-indent:0;text-align:start;text-decoration:none;line-height:125%;letter-spacing:normal;word-spacing:normal;text-transform:none;direction:ltr;block-progression:tb;writing-mode:lr-tb;text-anchor:start;fill:#ffffff;fill-opacity:1;fill-rule:nonzero;stroke:#000000;stroke-width:2.20538712px;stroke-linecap:butt;stroke-linejoin:miter;marker:none;marker-start:none;marker-mid:none;marker-end:none;stroke-miterlimit:4;stroke-dasharray:none;stroke-dashoffset:0;stroke-opacity:0.45882353;visibility:visible;display:inline;overflow:visible;enable-background:accumulate;font-family:Arial;-inkscape-font-specification:Arial Bold"><tspan x="696.10193" y="504.19254" id="tspan5624" style="font-size:70.5723877px;font-style:normal;font-variant:normal;font-weight:bold;font-stretch:normal;text-align:start;line-height:125%;writing-mode:lr-tb;text-anchor:start;fill:#ffffff;fill-opacity:1;stroke:#000000;stroke-width:2.20538712;stroke-opacity:0.45882353;font-family:Arial;-inkscape-font-specification:Arial Bold"><tspan x="696.10193" y="504.19254" id="tspan5626" style="font-size:70.5723877px;font-style:normal;font-variant:normal;font-weight:bold;font-stretch:normal;text-align:start;line-height:125%;writing-mode:lr-tb;text-anchor:start;fill:#ffffff;fill-opacity:1;stroke:#000000;stroke-width:2.20538712;marker:none;marker-start:none;marker-mid:none;marker-end:none;stroke-opacity:0.45882353;font-family:Arial;-inkscape-font-specification:Arial Bold">L4</tspan></tspan></text>
    <text x="688.77942" y="1254.455" id="text5628" xml:space="preserve" style="font-size:70.5723877px;font-style:normal;font-variant:normal;font-weight:bold;font-stretch:normal;text-indent:0;text-align:start;text-decoration:none;line-height:125%;letter-spacing:normal;word-spacing:normal;text-transform:none;direction:ltr;block-progression:tb;writing-mode:lr-tb;text-anchor:start;fill:#ffffff;fill-opacity:1;fill-rule:nonzero;stroke:#000000;stroke-width:2.20538712px;stroke-linecap:butt;stroke-linejoin:miter;marker:none;marker-start:none;marker-mid:none;marker-end:none;stroke-miterlimit:4;stroke-dasharray:none;stroke-dashoffset:0;stroke-opacity:0.45882353;visibility:visible;display:inline;overflow:visible;enable-background:accumulate;font-family:Arial;-inkscape-font-specification:Arial Bold"><tspan x="688.77942" y="1254.455" id="tspan5630" style="font-size:70.5723877px;font-style:normal;font-variant:normal;font-weight:bold;font-stretch:normal;text-align:start;line-height:125%;writing-mode:lr-tb;text-anchor:start;fill:#ffffff;fill-opacity:1;stroke:#000000;stroke-width:2.20538712;stroke-opacity:0.45882353;font-family:Arial;-inkscape-font-specification:Arial Bold"><tspan x="688.77942" y="1254.455" id="tspan5632" style="font-size:70.5723877px;font-style:normal;font-variant:normal;font-weight:bold;font-stretch:normal;text-align:start;line-height:125%;writing-mode:lr-tb;text-anchor:start;fill:#ffffff;fill-opacity:1;stroke:#000000;stroke-width:2.20538712;marker:none;marker-start:none;marker-mid:none;marker-end:none;stroke-opacity:0.45882353;font-family:Arial;-inkscape-font-specification:Arial Bold">L5</tspan></tspan></text>
    <path d="M 241.5175,211.42357 A 26.616943,26.438305 0 1 1 188.28362,211.42357 A 26.616943,26.438305 0 1 1 241.5175,211.42357 z" transform="matrix(0.2066353,0,0,0.2080315,132.07399,811.81851)" id="path2751" style="fill:#00d404;fill-opacity:1;fill-rule:evenodd;stroke:none;stroke-width:0.22728883;stroke-linecap:butt;stroke-linejoin:miter;marker:none;marker-start:none;marker-mid:none;marker-end:none;stroke-miterlimit:4;stroke-dasharray:none;stroke-dashoffset:0;stroke-opacity:1;visibility:visible;display:inline;overflow:visible;enable-background:accumulate"/>
    <path d="M 241.5175,211.42357 A 26.616943,26.438305 0 1 1 188.28362,211.42357 A 26.616943,26.438305 0 1 1 241.5175,211.42357 z" transform="matrix(0.2066353,0,0,0.2080315,747.07399,459.81851)" id="path3624" style="fill:#00d404;fill-opacity:1;fill-rule:evenodd;stroke:none;stroke-width:0.22728883;stroke-linecap:butt;stroke-linejoin:miter;marker:none;marker-start:none;marker-mid:none;marker-end:none;stroke-miterlimit:4;stroke-dasharray:none;stroke-dashoffset:0;stroke-opacity:1;visibility:visible;display:inline;overflow:visible;enable-background:accumulate"/>
    <path d="M 241.5175,211.42357 A 26.616943,26.438305 0 1 1 188.28362,211.42357 A 26.616943,26.438305 0 1 1 241.5175,211.42357 z" transform="matrix(0.2066353,0,0,0.2080315,831.17896,815.98978)" id="path3626" style="fill:#00d404;fill-opacity:1;fill-rule:evenodd;stroke:none;stroke-width:0.22728883;stroke-linecap:butt;stroke-linejoin:miter;marker:none;marker-start:none;marker-mid:none;marker-end:none;stroke-miterlimit:4;stroke-dasharray:none;stroke-dashoffset:0;stroke-opacity:1;visibility:visible;display:inline;overflow:visible;enable-background:accumulate"/>
    <path d="M 241.5175,211.42357 A 26.616943,26.438305 0 1 1 188.28362,211.42357 A 26.616943,26.438305 0 1 1 241.5175,211.42357 z" transform="matrix(0.2066353,0,0,0.2080315,1074.074,812.81851)" id="path3628" style="fill:#00d404;fill-opacity:1;fill-rule:evenodd;stroke:none;stroke-width:0.22728883;stroke-linecap:butt;stroke-linejoin:miter;marker:none;marker-start:none;marker-mid:none;marker-end:none;stroke-miterlimit:4;stroke-dasharray:none;stroke-dashoffset:0;stroke-opacity:1;visibility:visible;display:inline;overflow:visible;enable-background:accumulate"/>
    <path d="M 241.5175,211.42357 A 26.616943,26.438305 0 1 1 188.28362,211.42357 A 26.616943,26.438305 0 1 1 241.5175,211.42357 z" transform="matrix(0.2066353,0,0,0.2080315,747.07399,1174.8185)" id="path3630" style="fill:#00d404;fill-opacity:1;fill-rule:evenodd;stroke:none;stroke-width:0.22728883;stroke-linecap:butt;stroke-linejoin:miter;marker:none;marker-start:none;marker-mid:none;marker-end:none;stroke-miterlimit:4;stroke-dasharray:none;stroke-dashoffset:0;stroke-opacity:1;visibility:visible;display:inline;overflow:visible;enable-background:accumulate"/>
    <path d="M 241.5175,211.42357 A 26.616943,26.438305 0 1 1 188.28362,211.42357 A 26.616943,26.438305 0 1 1 241.5175,211.42357 z" transform="matrix(1.0801391,0,0,1.0874373,756.70755,630.84139)" id="path3746" style="fill:#00a0cc;fill-opacity:1;fill-rule:evenodd;stroke:none;stroke-width:0.22728883;stroke-linecap:butt;stroke-linejoin:miter;marker:none;marker-start:none;marker-mid:none;marker-end:none;stroke-miterlimit:4;stroke-dasharray:none;stroke-dashoffset:0;stroke-opacity:1;visibility:visible;display:inline;overflow:visible;enable-background:accumulate"/>
    <path d="M 875.34375,433.03125 C 869.99282,433.03125 864.97949,434.48181 860.6875,437.03125 C 860.72244,437.74297 860.78763,438.16501 860.625,438.09375 C 866.30603,442.2386 866.89122,448.49189 872.375,445.75 C 877.89988,442.98756 886.17369,437.72618 883.6875,434.6875 C 883.5181,434.48046 883.27947,434.25951 883,434.03125 C 880.5649,433.36029 877.99118,433.03125 875.34375,433.03125 z M 889.4375,436.71875 C 888.83637,439.78526 888.42231,443.98499 890.0625,446.28125 C 892.82493,450.14866 893.38378,450.71012 895.59375,455.40625 C 897.8037,460.10238 893.07994,467.55387 890.59375,472.25 C 888.39435,476.40444 891.83131,476.67918 897.625,479.9375 C 901.668,474.98494 904.09374,468.66829 904.09375,461.78125 C 904.09375,451.02754 898.18834,441.6496 889.4375,436.71875 z M 853.09375,443.5625 C 850.12316,447.19016 848.03879,451.55767 847.125,456.34375 C 850.22309,456.64426 855.42901,456.44524 859.125,456.78125 C 859.67749,457.33374 857.73121,452.37484 854.96875,445.46875 C 854.43171,444.12616 853.78977,443.56191 853.09375,443.5625 z M 854.09375,464.3125 C 851.54916,464.40742 849.11054,465.51388 847.03125,466.71875 C 849.37721,480.23545 861.15954,490.53126 875.34375,490.53125 C 878.81531,490.53125 882.13686,489.91038 885.21875,488.78125 C 885.43383,485.10604 883.04739,483.01295 879.28125,480 C 875.1376,476.68508 872.10738,477.80112 867.6875,472 C 863.26761,466.1989 862.42111,465.91246 856.34375,464.53125 C 855.58408,464.3586 854.84586,464.28444 854.09375,464.3125 z" transform="translate(113.48003,398.98523)" id="path3758" style="fill:#533400;fill-opacity:1;fill-rule:evenodd;stroke:none;stroke-width:1px;stroke-linecap:butt;stroke-linejoin:miter;stroke-opacity:1"/>
    <path d="M 872.65193,443.53427 C 872.65193,443.53427 858.01105,450.71659 858.83978,454.30775 C 859.66851,457.89891 856.07735,459.55637 861.32597,463.14753 C 866.57459,466.73869 864.91713,471.71107 874.03315,469.50112 C 883.14917,467.29118 893.09392,464.52875 889.50276,458.17516 C 885.9116,451.82156 885.9116,447.95416 880.1105,446.84919 C 874.30939,445.74422 872.92818,443.53427 872.65193,443.53427 z" transform="translate(113.48003,398.98523)" id="path3770" style="fill:#ffffff;fill-opacity:1;fill-rule:evenodd;stroke:#ffffff;stroke-width:1px;stroke-linecap:butt;stroke-linejoin:miter;stroke-opacity:1"/>
    <path d="M 241.5175,211.42357 A 26.616943,26.438305 0 1 1 188.28362,211.42357 A 26.616943,26.438305 0 1 1 241.5175,211.42357 z" transform="matrix(1.0801391,0,0,1.0874373,756.70755,630.84139)" id="path3748" style="fill:url(#linearGradient3756);fill-opacity:1;fill-rule:evenodd;stroke:none;stroke-width:0.22728883;stroke-linecap:butt;stroke-linejoin:miter;marker:none;marker-start:none;marker-mid:none;marker-end:none;stroke-miterlimit:4;stroke-dasharray:none;stroke-dashoffset:0;stroke-opacity:1;visibility:visible;display:inline;overflow:visible;enable-background:accumulate"/>
    <path d="M 241.5175,211.42357 A 26.616943,26.438305 0 1 1 188.28362,211.42357 A 26.616943,26.438305 0 1 1 241.5175,211.42357 z" transform="matrix(0.4001211,0,0,0.4028246,948.14379,733.68466)" id="path3772" style="fill:#666666;fill-opacity:1;fill-rule:evenodd;stroke:none;stroke-width:0.22728883;stroke-linecap:butt;stroke-linejoin:miter;marker:none;marker-start:none;marker-mid:none;marker-end:none;stroke-miterlimit:4;stroke-dasharray:none;stroke-dashoffset:0;stroke-opacity:1;visibility:visible;display:inline;overflow:visible;enable-background:accumulate"/>
    <path d="M 241.5175,211.42357 A 26.616943,26.438305 0 1 1 188.28362,211.42357 A 26.616943,26.438305 0 1 1 241.5175,211.42357 z" transform="matrix(0.4001211,0,0,0.4028246,948.14379,733.68466)" id="path3774" style="fill:url(#linearGradient3782);fill-opacity:1;fill-rule:evenodd;stroke:none;stroke-width:0.22728883;stroke-linecap:butt;stroke-linejoin:miter;marker:none;marker-start:none;marker-mid:none;marker-end:none;stroke-miterlimit:4;stroke-dasharray:none;stroke-dashoffset:0;stroke-opacity:1;visibility:visible;display:inline;overflow:visible;enable-background:accumulate"/>
  </g>
</svg>